<svg xmlns="http://www.w3.org/2000/svg" xml:space="preserve" id="Layer_1" x="0" y="0" style="enable-background:new 0 0 909 627" version="1.0" viewBox="90.47 166.4 728.03 294.22">
  <style>
    .st0{fill:#0773af}.st1{fill:#111}.st2{fill:#fff}
  </style>
  <path d="M243.9 166.5h142.3c5.8.3 10.4 5 10.7 10.7V446c.1 1.6-.1 3.2-.4 4.7-1.3 4.4-5.1 7.7-9.6 8.4-1.1 0-2.2.2-3.5.2H104c-1.2 0-2.3 0-3.5-.2-5.6-.7-9.9-5.4-10-11.1V179.5c-.1-1.5.1-3.1.4-4.5 1.3-4.9 5.7-8.4 10.7-8.6h2.7c46.6.1 93.2.2 139.6.1zm-5.8 244.1c.3-.1.5-.3.7-.5 5.1-4.7 10.2-9.6 15.3-14.4l.2-.2v-.4c-4.7-5.5-9.8-10.9-14.6-16.4.6-.5.7-1.1 1.3-1.5 1.5-1.6 2.9-3.5 4.6-5.1 1.6-1.5 2-3.3 2-5.5V246.4c.1-1.2-.4-2.4-1.3-3.3-5.3-5.8-10.4-11.6-15.6-17.5-.3-.4-.5-.7-.7-1.1-10-.4-83.9-.2-85.9.2-5.3 5.8-10.5 11.8-15.8 17.7-2.4 2.5-2 1.6-2 4.9V368c-.2 1.2.2 2.3 1.1 3.1 1.5 1.6 2.9 3.3 4.4 4.9 4.2 4.5 8.2 9.3 12.4 13.8h73c2.7 0 2.2-.4 4 1.8l15.7 17.3c.3.6.8 1.1 1.2 1.7zm48.4-144.5c-.3 0-.6-.1-.9-.2h-25.1c-.4 0-.7.2-1.3.2v102.8c-.1 1.4.5 2.7 1.5 3.6l14.7 15.8c.6.6 1.2 1.3 1.8 1.8h69.2c.7 0 1.3-.2 1.8-.7.4-.4.5-.7.9-.9 4.9-5.1 9.6-10.4 14.6-15.5.5-.5 1.1-1.3 1.8-2V267.2c0-.4-.2-.9-.2-1.3-.5 0-.9-.2-1.3-.2h-25.5c-.1 0-.2.1-.2.2-.2.9-.3 1.9-.2 2.9v90.1c0 .4-.2.9-.2 1.5h-49.1c-.7 0-1.5 0-2.2-.2v-93.4c0-.2-.1-.5-.1-.7z" class="st0"/>
  <path d="M423.4 229.9c.6.4 1.2 1 1.6 1.6 6 6.2 12 12.4 18 18.4.8.7 1.3 1.8 1.3 2.9V273c.4.1.8.2 1.3.2h58.2c.8-.1 1.7.3 2.2.9 4.4 4.7 8.9 9.6 13.5 14.4.7.6 1.1 1.5.9 2.4v81.7c0 3.3.4 2.4-2 4.7-4 4-8.2 8-12.2 12.2-.9.9-2 1.4-3.3 1.5h-63c-.6 0-1.2-.2-1.6-.7-.4-.4-.5-.7-.9-1.1-4.4-4.7-8.5-9.5-12.9-14.2-.9-.9-1.3-2.1-1.3-3.3V233.1c.1-1 .2-2.1.2-3.2zm75.7 139.7c.1-.3.2-.6.2-.9v-73.5c0-.4-.2-.5-.2-.9-.9-.1-1.8-.2-2.7-.2h-50.6c-.4 0-.9.2-1.5.2v73.9c0 .4.2.9.2 1.5H498c.4.1.7-.1 1.1-.1zM716.6 391.1c-.4-.4-.7-.9-1.1-1.3-4-4.4-8-8.7-12.2-13.1-.9-.8-1.4-2.1-1.3-3.3v-83c0-1.2.4-2.4 1.3-3.3 4.2-4.4 8.2-8.7 12.2-13.1.8-1 2-1.5 3.3-1.5h58.4l1.5 1.5c4 4.4 8.2 8.7 12.2 13.1.8.7 1.3 1.8 1.3 2.9v52c-.5 0-.9.2-1.3.2h-65.5c-1-.1-2-.1-2.9.2 0 .5-.2.9-.2 1.5-.2 6.4 0 23.5.2 25.7.4 0 .7.2 1.3.2h65.5c.9-.1 1.8-.1 2.7.2-.1.7-.4 1.3-.9 1.8l-10.9 15.9c-.5.7-1 1.4-1.5 2.2-.4.8-1.3 1.3-2.2 1.1h-56.8c-1 .1-2.1.2-3.1.1zm5.4-69.5c.8.2 1.7.3 2.5.2h45.3c.9.1 1.7.1 2.5-.2 0-.5.2-.9.2-1.3v-23.5c.1-.9 0-1.8-.4-2.5h-48.6c-.5 0-1.1.2-1.8.2.3 8.9.3 17.8.3 27.1zM626.8 391.1h-71.3c-4.7-4.9-9.5-10-14.4-15.1v-85.2c0-3.1-.4-2.2 1.8-4.5 3.6-3.8 7.3-7.8 10.9-11.6.9-1 2.2-1.6 3.6-1.6h67.7c.6 0 1.2.2 1.6.7.2.4.5.5.7.7 4 4.2 8 8.6 12 12.7.9.9 1.4 2.2 1.3 3.5v82.6c0 1.2-.4 2.4-1.3 3.3L627 390.2c.4.4 0 .6-.2.9zm-5.4-96.1c-.2-.2-.2-.4-.4-.4-.1 0-.3-.1-.4-.2h-59.3l-.4.4V368c0 .5.2 1.1.2 1.5.9.2 1.8.3 2.7.2h56.4c.5-.1 1-.2 1.5-.4v-73.5c-.3 0-.3-.6-.3-.8zM681.6 390.8c-.3.1-.6.2-.9.2h-17.8c-.2 0-.4-.2-.7-.2 0-.4-.2-.9-.2-1.3V231.9c.9-.4 1.1.2 1.5.5 4.2 4.2 8.2 8.4 12.4 12.6 1.6 1.6 3.3 3.5 5.1 5.1.7.5 1 1.3.9 2.2v135.4c-.2 1-.3 2-.3 3.1zM803 273.7c-8.6.1-15.6-6.9-15.7-15.5-.1-8.6 6.9-15.6 15.5-15.7 8.6-.1 15.6 6.9 15.7 15.5v.2c.2 8.6-7.1 15.5-15.5 15.5zm0-29.1c-7.5 0-13.6 6-13.6 13.5s6 13.6 13.5 13.6 13.6-6 13.6-13.5c.2-7.4-5.7-13.5-13-13.6h-.5z" class="st1"/>
  <path d="M153.6 254.1c.4 0 .7-.2 1.1-.2h64.6c.1.4.2.9.4 1.3v103.6c.1 1 .1 2-.2 2.9-.4 0-.6.2-.7.2h-64.3c-.2 0-.4-.2-.7-.2 0-.4-.2-.9-.2-1.3V257.2c-.3-1.1-.6-2.2 0-3.1z" class="st0"/>
  <path d="M806.1 258.4c1.5 1.6 2.8 3.4 3.8 5.3-1.6.5-1.8.5-2.5-.5l-1.6-2.7c-.7-1.6-2.5-2.5-4.2-2-.3 0-.5.1-.7.2 0 .5-.2.9-.2 1.5 0 1.3 0 2.6-.2 3.8H799c0-.4-.2-.7-.2-1.1-.2-5.5-.2-9.8.4-11.5.2 0 .5-.2.7-.2h5.3c.6 0 1.2.2 1.8.4 1.2.3 2.1 1.3 2.2 2.5.2 1.3-.3 2.6-1.3 3.5-.5.3-1.2.6-1.8.8zm-5.4-1.6c.4 0 .5.2.9.2h2.9c.5 0 1-.1 1.5-.4 1-.3 1.6-1.5 1.2-2.5 0-.1-.1-.2-.1-.3-.3-.6-.9-1-1.6-1.1-1.6-.2-3.2-.2-4.7 0-.3 1.4-.3 2.8-.1 4.1z" class="st1"/>
  <path d="M338.2 359.1c0 .4-.2.9-.2 1.5h-49.1c-.7 0-1.5 0-2.2-.2V267c0-.4-.2-.7-.2-1.1-.3 0-.6-.1-.9-.2h-25.1c-.4 0-.7.2-1.3.2v102.8c-.1 1.4.5 2.7 1.5 3.6l14.7 15.8c.6.7 1.2 1.3 1.8 1.8h69.2c.7 0 1.3-.2 1.8-.7.4-.4.5-.7.9-.9 4.9-5.1 9.6-10.4 14.6-15.5.5-.5 1.1-1.3 1.8-2V267c0-.4-.2-.9-.2-1.3-.5 0-.9-.2-1.3-.2h-25.5c-.1 0-.2.1-.2.2-.2.9-.3 1.9-.2 2.9v90.5h.1zM127.3 370.9l4.4 4.9c4.2 4.5 8.2 9.3 12.4 13.8h73c2.7 0 2.2-.4 4 1.8l15.7 17.3c.6.6 1.1 1.2 1.6 1.8.3-.1.5-.3.7-.5 5.1-4.7 10.2-9.6 15.3-14.4l.2-.2v-.4c-4.7-5.5-9.8-10.9-14.6-16.4.6-.5.7-1.1 1.3-1.5 1.4-1.6 2.9-3.5 4.6-5.1 1.6-1.5 2-3.3 2-5.5V246.4c.1-1.2-.4-2.4-1.3-3.3-5.3-5.8-10.4-11.6-15.6-17.5-.4-.4-.5-.9-.7-1.1-10.2-.4-84.1-.2-86.1.2-5.3 5.8-10.5 11.8-15.9 17.7-2.4 2.5-2 1.6-2 4.9V368c-.3 1.1.1 2.2 1 2.9zm26.3-116.8c.4 0 .7-.2 1.1-.2h64.6c.1.4.2.9.4 1.3v103.6c.1 1 .1 2-.2 2.9-.4 0-.6.2-.7.2h-64.3c-.2 0-.4-.2-.7-.2 0-.4-.2-.9-.2-1.3V257.2c-.3-1.1-.6-2.2 0-3.1z" class="st2"/>
  <g id="Layer_2">
    <g id="Layer_1-2">
      <path d="M442.1 447h-13.5l-2.4 5.8h-3.6l10.5-26.6h4.2l10.7 26.6h-3.6l-2.3-5.8zm-12.3-2.9h11.5l-5.6-14.7-5.9 14.7zM464 440.3c0-3.5-1.6-4.4-4.4-4.4-2.2 0-4.3 1.1-5.6 2.9v14h-3v-19.1h3.1v2.7c1.8-2 4.3-3.1 6.9-3.3 4 0 6.2 2 6.2 6.2v13.5h-2.9l-.3-12.5zM482.5 426.4h3.3V453h-3.3v-26.6zM505.3 449.9c-1.6 2.1-4 3.3-6.6 3.3-5.1 0-8.5-3.8-8.5-10s3.5-10 8.5-10c2.6 0 5 1.3 6.6 3.5v-10.2h2.9V453h-2.9v-3.1zm0-10.9c-1.3-1.9-3.5-3.1-5.8-3.1-3.8 0-6.2 3.1-6.2 7.5 0 4.2 2.4 7.5 6.2 7.5 2.3 0 4.5-1.2 5.8-3.1V439zM522.2 433.2c5.8 0 9.3 4.5 9.3 10.4v.7H516c0 3.6 2.9 6.5 6.5 6.6h.5c2.2 0 4.3-.9 6-2.4l1.4 2c-2 2-4.8 3.1-7.6 2.9-5.6 0-9.6-4.2-9.6-10-.5-5.7 3.4-10.2 9-10.2zm-6.4 8.9h12.6c.1-3.4-2.5-6.2-5.9-6.4H522.2c-4.2 0-6.2 3.5-6.4 6.4zM535.8 433.7h2.9v3.1c1.4-2.2 3.8-3.5 6.4-3.5v3.1c-.4 0-.7-.2-1.3-.2-2.1.2-4.1 1.3-5.3 3.1v13.5h-2.9l.2-19.1zM560.4 450.6c-1.6 1.8-4 2.8-6.4 2.7-3.3 0-6.7-2.2-6.7-6.4s3.5-6.4 6.7-6.4c2.4-.1 4.7.8 6.4 2.5v-3.5c0-2.5-2-4-4.9-4-2.3 0-4.4 1-5.8 2.7l-1.5-2c1.9-2.1 4.8-3.3 7.6-3.1 4 0 7.5 1.8 7.5 6.5V453h-2.9v-2.4zm0-5.4c-1.2-1.6-3.2-2.5-5.3-2.4-2.7 0-4.7 1.8-4.7 4.2s2 4.2 4.7 4.2c2 .2 4-.7 5.3-2.4v-3.6zM568.1 456.6c1.3-.9 2.2-2.2 2.5-3.6h-.5c-.9.1-1.8-.7-1.8-1.6v-.4c0-1.2 1-2.2 2.2-2.2 1.3 0 2.5 1.1 2.5 3.1-.1 2.4-1.3 4.6-3.3 6l-1.6-1.3zM587.5 426.4h3.3V453h-3.3v-26.6zM609.4 440.3c0-3.5-1.6-4.4-4.4-4.4-2.2 0-4.3 1.1-5.6 2.9v14h-2.9v-19.1h2.9v2.7c1.8-2 4.3-3.1 6.9-3.3 4 0 6.2 2 6.2 6.2v13.5h-2.9l-.2-12.5zM626.5 433.2c2.8-.2 5.4 1.1 7.1 3.3l-2 1.8c-1.1-1.6-2.9-2.6-4.9-2.5-4 0-6.5 3.1-6.5 7.5s2.5 7.5 6.5 7.5c2 0 3.8-.9 4.9-2.5l2 1.8c-1.6 2.2-4.3 3.5-7.1 3.3-5.6 0-9.7-4.4-9.7-10s4-10.2 9.7-10.2zM638.7 448.8c1.2 0 2.2 1 2.2 2.2 0 1.2-1 2.2-2.2 2.2-1.2 0-2.2-1-2.2-2.2.1-1.2 1-2.1 2.2-2.2zM654.7 439.5c-.2-7.3 5.5-13.4 12.7-13.7h.7c4.1-.1 7.9 1.9 10.2 5.3l-2.7 1.5c-1.7-2.4-4.5-3.9-7.5-3.8-5.7 0-10 4.4-10 10.7s4.4 10.7 10 10.7c2.9 0 5.7-1.5 7.5-3.8l2.7 1.5c-2.4 3.3-6.1 5.2-10.2 5.3-7.3.1-13.3-5.6-13.5-12.9v-.8zM681.1 443.2c0-5.6 3.6-10 9.5-10s9.5 4.5 9.5 10c0 5.6-3.6 10-9.5 10-5.9.2-9.5-4.4-9.5-10zm15.8 0c0-3.8-2.2-7.5-6.4-7.5s-6.4 3.5-6.4 7.5 2.4 7.5 6.4 7.5 6.4-3.5 6.4-7.5zM727.5 439.9c0-2.4-1.1-4-3.5-4-2 .2-3.9 1.2-5.1 2.9v14H716v-12.9c0-2.4-1.1-4-3.5-4-2 .2-3.9 1.3-5.1 2.9v14h-2.9v-19.3h2.9v2.7c1.5-1.9 3.7-3.1 6.2-3.3 2.4-.2 4.5 1.3 5.1 3.6 1.5-2.2 3.9-3.5 6.5-3.6 3.5 0 5.5 2 5.5 5.8v13.8h-2.9l-.3-12.6zM736 460.1v-26.4h2.9v2.9c1.6-2.1 4-3.3 6.6-3.3 5.1 0 8.5 3.8 8.5 10s-3.5 10-8.5 10c-2.6 0-5.1-1.3-6.6-3.5V460l-2.9.1zm8.6-24.2c-2.3 0-4.4 1.1-5.6 3.1v8.7c1.3 1.9 3.4 3 5.6 3.1 3.8 0 6.2-3.1 6.2-7.5s-2.2-7.4-6.2-7.4zM770.5 450.6c-1.6 1.8-4 2.8-6.4 2.7-3.3 0-6.7-2.2-6.7-6.4s3.5-6.4 6.7-6.4c2.4-.1 4.7.8 6.4 2.5v-3.5c0-2.5-2-4-4.9-4-2.3 0-4.4 1-5.8 2.7l-1.3-2c1.9-2.1 4.8-3.3 7.6-3.1 4 0 7.5 1.8 7.5 6.5V453h-2.9l-.2-2.4zm0-5.4c-1.2-1.6-3.2-2.5-5.3-2.4-2.7 0-4.7 1.8-4.7 4.2s2 4.2 4.7 4.2c2 .1 4-.8 5.3-2.4v-3.6zM791.7 440.3c0-3.5-1.6-4.4-4.4-4.4-2.2 0-4.3 1.1-5.6 2.9v14h-2.9v-19.1h2.9v2.7c1.8-2 4.3-3.1 6.9-3.3 4 0 6.2 2 6.2 6.2v13.5h-2.9l-.2-12.5zM801.4 457.9c1.3.1 2.6-.7 2.9-2l1.3-2.9-8-19.3h3.3l6.4 15.7 6.4-15.7h3.3l-9.7 23.1c-.8 2.4-3.1 4-5.6 3.8-.7 0-1.5-.2-2.2-.4l.5-2.7c.4.4.9.5 1.4.4z" class="st0"/>
    </g>
  </g>
  <path d="M60 141h789v345H60z" style="fill:none"/>
</svg>