<svg xmlns="http://www.w3.org/2000/svg" xmlns:xlink="http://www.w3.org/1999/xlink" width="165" height="42">
  <defs>
    <path id="reuse-0" d="M-7.55-7.84h180.09v57.68H-7.55z" style="fill:url(#b);stroke-width:0"/>
  </defs>
  <defs>
    <clipPath id="a">
      <path d="M34.28 18.32c-.52-.33-1.12-.44-1.74-.49-.69-.06-1.38-.01-2.07.11-.82.14-1.65.3-2.47.46-.45.09-.89.21-1.34.33-.08.02-.16.04-.23.02-.14-.04-.11-.22.04-.33.13-.1.19-.12.46-.23.16-.07.31-.13.48-.18.42-.15.85-.29 1.27-.43.48-.16.97-.28 1.44-.47.67-.27 1.31-.62 1.86-1.13.37-.35.64-.74.75-1.21.09-.4.15-.51.19-.91.06-.49.1-.98.12-1.47.01-.4-.03-.8-.03-1.21 0-.41-.09-.8-.22-1.17-.23-.66-.72-1.2-1.36-1.47-.7-.3-1.45-.38-2.2-.39 0 0-1.52-.19-5.57.45-1.77.28-3.2.53-4.21.77-.75.18-1.23.37-1.55.39-.19.01-.25-.04-.27-.12 0-.07.05-.15.25-.28.85-.57 3.21-1.65 4.51-2.19.48-.2.96-.39 1.42-.64.19-.1.22-.24.18-.43-.04-.19-.02-.36.15-.52.19-.18.36-.38.52-.58.09-.1.13-.23.06-.36-.09-.18-.19-.36-.28-.53-.17-.34-.19-.51.09-.85.14-.16.27-.32.4-.49.22-.3.23-.6.04-.88-.12-.19-.27-.38-.43-.54-.3-.28-.54-.59-.69-.99-.19-.5-.66-.77-1.22-.72-1.86.15-3.69.78-5.4 1.47-.9.36-1.79.75-2.67 1.17-.92.43-1.83.88-2.72 1.37-.98.55-1.93 1.13-2.87 1.74-1.13.73-2.16 1.59-3.19 2.46-.55.47-1.08.96-1.59 1.46-.29.28-.58.57-.86.86-.96 1.01-1.72 2.17-2.48 3.34-1.32 2.05-1.05 4.94.5 6.8.29.35.61.66 1.06.8.25.08.53.11.8.13.45.02.9-.03 1.34-.2.29-.12.58-.24.86-.37 0 0 .01 0 .04-.02.06-.03.13-.06.19-.09 1.09-.52 2.17-1.14 3.25-1.69.11-.06.22-.12.35-.12.04 0 .08 0 .11.03.04.03.06.07.06.12 0 .09-.07.12-.14.17-.08.06-.16.11-.24.17-.16.11-.33.22-.49.33-.21.15-.43.3-.64.45-.46.33-.92.67-1.37 1.01-.73.55-1.45 1.12-2.15 1.71-.77.65-1.51 1.35-2.24 2.06-.85.82-1.64 1.71-1.9 2.9-.15.68-.17 1.35-.03 2.01.12.58.24 1.16.4 1.73.17.62.35 1.25.59 1.84.36.88.91 1.63 1.76 2.12.45.26.96.29 1.48.17.33-.07.65-.21.94-.39.96-.59 1.9-1.23 2.77-1.95.95-.78 1.88-1.56 2.95-2.19.03-.02.07-.04.11-.05.08-.01.16.04.18.11.05.18-.28.4-.38.49-.5.46-.96.95-1.32 1.53-.36.58-.66 1.18-.83 1.83-.25.93-.28 1.92-.02 2.85v.03c.32 1.08.93 1.98 1.82 2.66.87.66 1.99.5 2.92-.1.35-.23.68-.51 1.03-.75 1.11-.76 2.05-1.42 3.17-2.15.55-.35 1.1-.69 1.66-1.01.44-.26.88-.56 1.34-.78.09-.04.39-.15.42.02.01.07-.04.15-.06.18l-.19.19c-.18.17-.46.45-.62.63-.3.33-.59.68-.86 1.03-.54.71-1.02 1.47-1.4 2.27-.25.53-.37.99-.37 1.6 0 .21.09.41.25.54.18.15.37.24.6.23.43-.02.85-.15 1.24-.33.15-.07.3-.16.44-.25.15-.1.29-.24.47-.28.09-.02.2 0 .27.06.13.13.15.32.36.37.27.07.52-.2.7-.35.23-.2.44-.42.66-.63.36-.34.71-.7 1.06-1.07.75-.8 1.59-1.53 2.44-2.23.82-.68 1.72-1.34 2.61-1.98.9-.65 1.88-1.24 2.67-2.03.33-.33.6-.71.76-1.14.29-.76.36-1.53.2-2.3-.22-1.09-.88-1.79-1.94-2.13-.37-.12-.74-.19-1.13-.22-.39-.07-.78-.09-1.16-.1-.68-.02-1.37.02-2.04.11-.74.09-1.47.21-2.19.36-.21.04-.42.09-.63.14-.14.04-.27.08-.41.12-.09.03-.26.08-.33-.01-.03-.04-.02-.1 0-.15.05-.08.14-.13.21-.18.08-.06.17-.11.26-.16.17-.1.34-.19.51-.29.34-.2.68-.4 1.03-.59.65-.35 1.33-.65 2-.97.47-.22.93-.44 1.41-.62.87-.34 1.74-.65 2.61-.97.55-.21 1.09-.42 1.63-.64.47-.19.93-.39 1.39-.6.42-.2.79-.52 1-.94.19-.37.28-.76.33-1.16.03-.21.05-.42.05-.63 0-.33.07-.67.03-.99-.07-.54-.34-.97-.81-1.26Z" style="fill:none;stroke-width:0"/>
    </clipPath>
    <clipPath id="c">
      <path d="M64.51 32.84c-.86 0-1.37-.7-1.09-2.46L67.36 5.4h-6.63c-.74-.52-1.84-.82-3.36-.82-5.46 0-9.68 3.04-10.69 9.45l-.08.51-2.83.16-.12.75h2.79l-3.93 24.43 5.46-2.6 2.26-1.08 3.27-20.76h2.93l.24-1.5-2.96.17c.14-.89.28-1.79.42-2.68.17-1.09.31-2.2.64-3.25.38-1.19 1.13-2.42 2.42-2.75.72-.18 1.6-.01 2.07.61.53.69.59 1.62.53 2.46-.07.92-.23 1.84-.37 2.75l-3.01 19.13c-.39 2.58 1.33 4.33 4.37 4.33 2.06 0 4.47-.73 5.38-2.76v-.01l-.23-.32c-.36.84-.86 1.22-1.4 1.22Z" style="fill:none;stroke-width:0"/>
    </clipPath>
    <clipPath id="d">
      <path d="M89.17 32.84c-.86 0-1.37-.7-1.09-2.46l2.5-15.81h-7.03l-.9 5.58c-.23-4.1-2.22-6.21-5.62-6.21-6.13 0-10.38 6.25-10.38 12.69 0 5.27 3.24 8.08 7.06 8.08s6.36-2.89 7.65-6.28l-.31 1.95c-.39 2.58 1.33 4.33 4.37 4.33s4.76-1.37 5.39-2.77l-.23-.32c-.36.84-.86 1.22-1.4 1.22Zm-12.8.08c-1.48 0-2.77-1.76-2.77-5.31s1.68-11.87 5.54-11.87c1.6 0 3.04 2.03 3.04 5.74 0 3.28-1.87 11.44-5.82 11.44Z" style="fill:none;stroke-width:0"/>
    </clipPath>
    <clipPath id="e">
      <path d="M104.69 17.73c-.2.42-.37.84-.5 1.25-.13.41-.2.81-.2 1.17 0 .83.23 1.45.68 1.87.45.42 1.07.63 1.86.63.59 0 1.13-.12 1.61-.35.48-.24.89-.55 1.24-.93s.62-.82.81-1.32c.19-.5.29-1.01.29-1.54 0-1.3-.63-2.47-1.69-3.21-1.53-1.07-3.54-1.37-5.37-1.35-1.2.01-2.39.19-3.54.52s-2.26.81-3.28 1.44c-2.43 1.49-4.34 3.82-5.23 6.54-.36 1.1-.55 2.26-.55 3.42 0 5.43 4.29 8.9 9.13 8.9 3.2 0 6.67-1.48 9.36-4.83l-.25-.34c-1.56 1.93-3.77 2.79-5.83 2.79-2.85 0-5.39-1.56-5.39-6.75 0-1.46.18-2.93.52-4.35.36-1.49.9-2.98 1.8-4.23.95-1.33 2.49-2.39 4.18-2.31.63.03 1.25.22 1.79.56.01 0 .02.01.03.02-.26.36-.51.74-.77 1.15-.26.42-.5.84-.7 1.26Z" style="fill:none;stroke-width:0"/>
    </clipPath>
    <clipPath id="f">
      <path d="M122.33 13.95c-7.1 0-12.41 5.78-12.41 12.14 0 5.15 3.71 8.63 9.09 8.63 6.83 0 12.72-5.54 12.72-12.1 0-5.15-4.02-8.66-9.41-8.66Zm-3.05 19.99c-1.68 0-2.54-1.76-2.54-5.31s1.37-13.9 5.31-13.9c1.68 0 2.81 1.95 2.81 5.82s-1.64 13.39-5.58 13.39Z" style="fill:none;stroke-width:0"/>
    </clipPath>
    <clipPath id="g">
      <path d="m154.57 31.94-.23-.32c-.36.84-.86 1.22-1.4 1.22-.86 0-1.37-.7-1.09-2.46l1.41-8.94c.7-4.45-.82-7.49-5.58-7.49-3.83 0-5.23 2.15-6.21 3.71h-.12l-1.83-3.08h-5.31c.2 1.29.2 2.61-.31 5.85l-2.15 13.66h7.03l2.26-14.29c.78-1.68 1.76-3.71 3.28-3.71 1.8 0 2.38 2.5 1.91 5.39l-1.41 8.9c-.39 2.58 1.33 4.33 4.37 4.33s4.76-1.37 5.39-2.77Z" style="fill:none;stroke-width:0"/>
    </clipPath>
    <clipPath id="h">
      <path d="m164.64 31.94-.23-.32c-.36.84-.86 1.22-1.4 1.22-.86 0-1.37-.7-1.09-2.46l2.5-15.81h-7.65c.2 1.29.2 2.61-.31 5.85l-1.56 9.95c-.39 2.58 1.33 4.33 4.37 4.33s4.76-1.37 5.39-2.77Z" style="fill:none;stroke-width:0"/>
    </clipPath>
    <clipPath id="i">
      <path d="M161.23 12.24c2.08 0 3.77-1.69 3.77-3.77s-1.69-3.77-3.77-3.77-3.77 1.69-3.77 3.77 1.69 3.77 3.77 3.77Z" style="fill:none;stroke-width:0"/>
    </clipPath>
    <linearGradient id="b" x1="34.64" x2="124.53" y1="-19.44" y2="56.51" data-name="Unbenannter Verlauf 38" gradientUnits="userSpaceOnUse">
      <stop offset="0" stop-color="#f0b3dc"/>
      <stop offset=".02" stop-color="#e5b3dd"/>
      <stop offset=".05" stop-color="#cab6e1"/>
      <stop offset=".08" stop-color="#9eb9e7"/>
      <stop offset=".13" stop-color="#62beef"/>
      <stop offset=".13" stop-color="#5fbff0"/>
      <stop offset=".24" stop-color="#875528"/>
      <stop offset=".35" stop-color="#2e2e2e"/>
      <stop offset=".45" stop-color="#e20500"/>
      <stop offset=".56" stop-color="#ff7602"/>
      <stop offset=".67" stop-color="#ffdb00"/>
      <stop offset=".68" stop-color="#f7d801"/>
      <stop offset=".7" stop-color="#e1d206"/>
      <stop offset=".71" stop-color="#bec80e"/>
      <stop offset=".73" stop-color="#8dbb19"/>
      <stop offset=".76" stop-color="#4ea926"/>
      <stop offset=".78" stop-color="#029437"/>
      <stop offset=".78" stop-color="#009438"/>
      <stop offset=".89" stop-color="#3270d2"/>
      <stop offset="1" stop-color="#ac1bab"/>
    </linearGradient>
  </defs>
  <g style="clip-path:url(#a)">
    <use xlink:href="#reuse-0" style="fill:url(#b);stroke-width:0"/>
  </g>
  <g style="clip-path:url(#c)">
    <use xlink:href="#reuse-0" style="fill:url(#b);stroke-width:0"/>
  </g>
  <g style="clip-path:url(#d)">
    <use xlink:href="#reuse-0" style="fill:url(#b);stroke-width:0"/>
  </g>
  <g style="clip-path:url(#e)">
    <use xlink:href="#reuse-0" style="fill:url(#b);stroke-width:0"/>
  </g>
  <g style="clip-path:url(#f)">
    <use xlink:href="#reuse-0" style="fill:url(#b);stroke-width:0"/>
  </g>
  <g style="clip-path:url(#g)">
    <use xlink:href="#reuse-0" style="fill:url(#b);stroke-width:0"/>
  </g>
  <g style="clip-path:url(#h)">
    <use xlink:href="#reuse-0" style="fill:url(#b);stroke-width:0"/>
  </g>
  <g style="clip-path:url(#i)">
    <use xlink:href="#reuse-0" style="fill:url(#b);stroke-width:0"/>
  </g>
</svg>