<svg xmlns="http://www.w3.org/2000/svg" xml:space="preserve" style="enable-background:new 0 0 191 58" viewBox="0 0 191 58">
  <path fill="#000" d="M29 0C13 0 0 13 0 29s13 29 29 29 29-13 29-29S45 0 29 0zm0 48.3C18.4 48.3 9.7 39.6 9.7 29 9.7 18.3 18.4 9.7 29 9.7V29h19.3c.1 10.6-8.6 19.3-19.3 19.3zm0-7.8V29H17.5c0 6.3 5.2 11.4 11.5 11.5zM17.5 29c0 6.3 5.2 11.4 11.5 11.5V29H17.5zm0 0c0 6.3 5.2 11.4 11.5 11.5V29H17.5z"/>
  <path stroke="#fff" fill="#FFF" d="M48.3 29c.1 10.6-8.6 19.3-19.3 19.3-10.6 0-19.3-8.7-19.3-19.3C9.7 18.3 18.4 9.7 29 9.7V29H17.5c0 6.3 5.2 11.4 11.5 11.5V29h19.3z" class="st0"/>
  <path fill="#000" d="M76.6 33.4c.5 0 1.1-.1 1.6-.3s1-.5 1.5-.9c.4-.4.8-1 1.1-1.6.3-.7.4-1.4.4-2.4 0-.9-.1-1.7-.4-2.4-.3-.7-.6-1.2-1.1-1.6-.4-.4-.9-.7-1.5-.9-.5-.2-1.1-.3-1.6-.3s-1.1.1-1.6.3c-.5.2-1 .5-1.5.9-.4.4-.8 1-1.1 1.6-.3.7-.4 1.4-.4 2.4 0 .9.1 1.7.4 2.4.3.7.6 1.2 1.1 1.6.4.4.9.7 1.5.9.5.2 1 .3 1.6.3zm0 2.6c-1 0-2-.2-2.9-.5s-1.7-.8-2.4-1.5-1.3-1.5-1.7-2.5c-.4-1-.6-2.1-.6-3.4s.2-2.4.6-3.4 1-1.8 1.7-2.5 1.5-1.1 2.4-1.5c.9-.3 1.9-.5 2.9-.5s1.9.2 2.9.5c.9.3 1.7.8 2.4 1.5s1.3 1.5 1.7 2.5c.4 1 .6 2.1.6 3.4s-.2 2.5-.6 3.4c-.4 1-1 1.8-1.7 2.5s-1.5 1.1-2.4 1.5c-.9.3-1.9.5-2.9.5zM86.6 20.9c0-.3.1-.4.4-.4h2c.3 0 .4.1.4.4v12.2h7.3c.3 0 .4.1.4.4v1.8c0 .3-.1.4-.4.4H87c-.3 0-.4-.1-.4-.4V20.9zM102.6 27.8l-4-6.7c-.1-.1-.1-.2-.1-.3 0-.2.1-.3.3-.3h2.4c.2 0 .3 0 .4.1.1 0 .2.1.3.3l2.5 4.2 2.5-4.2.3-.3c.1 0 .2-.1.4-.1h2.4c.2 0 .3.1.3.3 0 .1 0 .2-.1.3l-4 6.7 4.5 7.6c.1.1.1.2.1.2 0 .2-.1.2-.3.2h-2.7c-.2 0-.3 0-.4-.1s-.2-.2-.2-.3l-2.7-4.6-2.7 4.6c-.1.1-.2.3-.2.3-.1.1-.2.1-.4.1h-2.6c-.2 0-.3-.1-.3-.2s0-.2.1-.2l4.2-7.6zM122.8 28.1c0-.3.1-.4.4-.4h8.1c.3 0 .4.1.4.4v.3c0 1.1-.2 2.1-.5 3.1-.3.9-.8 1.7-1.4 2.4-.6.7-1.3 1.2-2.2 1.6-.9.4-1.8.6-2.9.6-1 0-2-.2-2.9-.5s-1.8-.8-2.5-1.5-1.3-1.5-1.7-2.5c-.4-1-.7-2.1-.7-3.5 0-1.3.2-2.4.7-3.4.4-1 1-1.8 1.8-2.5.7-.7 1.6-1.2 2.5-1.5s1.9-.5 2.9-.5c.7 0 1.4.1 2 .3.6.2 1.2.4 1.8.7.5.3 1 .6 1.4 1s.8.8 1.1 1.2c.1.1.1.2.1.3 0 .1-.1.2-.2.4l-1.4 1.2c-.1.1-.3.2-.4.2-.1 0-.3-.1-.4-.2-.6-.7-1.2-1.3-1.8-1.7-.7-.4-1.4-.6-2.4-.6-.6 0-1.2.1-1.8.3-.6.2-1.1.5-1.5 1-.4.4-.8 1-1.1 1.6-.3.6-.4 1.4-.4 2.3 0 .8.1 1.6.4 2.2s.6 1.2 1.1 1.6c.4.4.9.8 1.5 1s1.2.3 1.8.3c1 0 1.9-.3 2.6-.8s1.1-1.3 1.4-2.3h-5.4c-.3 0-.4-.1-.4-.4v-1.7zM140.2 26.3c.6 0 1.1-.1 1.5-.4s.5-.6.5-1.2c0-.5-.2-.9-.5-1.2-.4-.3-.9-.4-1.5-.4h-3.3v3.1h3.3v.1zm-6.1-5.4c0-.3.1-.4.4-.4h5.6c1.6 0 2.9.4 3.8 1.1.9.7 1.3 1.8 1.3 3.1 0 .6-.1 1.2-.3 1.7s-.5.9-.9 1.3c-.4.3-.8.6-1.3.8-.5.2-1 .3-1.6.4l4.7 6.4c.1.1.1.2.1.2 0 .2-.1.2-.3.2h-2.7c-.2 0-.3 0-.3-.1-.1-.1-.2-.1-.2-.3l-4.8-6.5h-.5v6.4c0 .3-.1.4-.4.4h-2c-.3 0-.4-.1-.4-.4V20.9h-.2zM154.4 33.4c.5 0 1.1-.1 1.6-.3s1-.5 1.5-.9c.4-.4.8-1 1.1-1.6.3-.7.4-1.4.4-2.4 0-.9-.1-1.7-.4-2.4-.3-.7-.6-1.2-1.1-1.6-.4-.4-.9-.7-1.5-.9-.5-.2-1.1-.3-1.6-.3s-1.1.1-1.6.3c-.5.2-1 .5-1.5.9-.4.4-.8 1-1.1 1.6-.3.7-.4 1.4-.4 2.4 0 .9.1 1.7.4 2.4.3.7.6 1.2 1.1 1.6.4.4.9.7 1.5.9.5.2 1 .3 1.6.3zm0 2.6c-1 0-2-.2-2.9-.5s-1.7-.8-2.4-1.5-1.3-1.5-1.7-2.5-.6-2.1-.6-3.4.2-2.4.6-3.4c.4-1 1-1.8 1.7-2.5s1.5-1.1 2.4-1.5c.9-.3 1.9-.5 2.9-.5s1.9.2 2.9.5c.9.3 1.7.8 2.4 1.5s1.3 1.5 1.7 2.5.6 2.1.6 3.4-.2 2.5-.6 3.4c-.4 1-1 1.8-1.7 2.5s-1.5 1.1-2.4 1.5c-1 .3-1.9.5-2.9.5zM164.3 20.9c0-.3.1-.4.4-.4h2c.3 0 .4.1.4.4v8.4c0 .8.1 1.4.3 1.9s.4.9.7 1.2.7.5 1.1.7c.4.1.8.2 1.3.2s.9-.1 1.3-.2.8-.4 1.1-.7.5-.7.7-1.2.3-1.2.3-1.9v-8.4c0-.3.1-.4.4-.4h2c.3 0 .4.1.4.4V29c0 2.3-.5 4.1-1.6 5.2s-2.6 1.7-4.6 1.7-3.5-.6-4.6-1.7c-1.1-1.1-1.6-2.9-1.6-5.2v-8.1zM185.6 27.3c1.7 0 2.5-.7 2.5-2.1s-.8-2.1-2.5-2.1h-3.2v4.1h3.2v.1zm-6-6.4c0-.3.1-.4.4-.4h5.9c.9 0 1.6.1 2.2.4.6.2 1.2.6 1.6 1s.7.9.9 1.5.3 1.2.3 1.9c0 .6-.1 1.2-.3 1.8-.2.6-.5 1.1-.9 1.5s-.9.8-1.5 1-1.3.4-2.1.4h-3.7v5.4c0 .3-.1.4-.4.4h-2c-.3 0-.4-.1-.4-.4V20.9z"/>
</svg>