<svg xmlns="http://www.w3.org/2000/svg" width="115" height="33.9" fill="none" viewBox="0 0 115 33">
  <g clip-path="url(#a)">
    <path fill="#D71920" d="m72.4622 9.6674-1.8893-3.22731-3.3862 1.61365-1.8893-3.22731-3.3862 1.61366-1.8893-3.22731-3.3862 1.61365-1.8893-3.22731-3.3862 1.61366L49.4709 0l-3.3862 1.61366-7.1648 23.31804 8.7053 2.6604c.5813-1.8754 2.3398-3.2564 4.4035-3.2564 2.5433 0 4.607 2.0643 4.607 4.6084v.0872c.0145.4216-.0291.8431-.1599 1.2502l8.8507 2.704 7.1357-23.3181Z"/>
    <path fill="#FFF" d="M46.3747 22.9982c-.4505-.0873-.7702-.4652-.7702-.9304V10.6559c0-.5379.4215-.94496.9446-.94496h8.2403c.218 0 .436.01453.6394.05815 1.7731.31981 3.0665 1.84621 3.0665 3.64891v8.6643c0 .2617-.1017.4943-.2906.6833-.1744.1744-.4215.2762-.6686.2762-.0581 0-.1162 0-.1744-.0146-.4505-.0872-.7702-.4652-.7702-.9304v-8.6934c0-.8722-.6249-1.6136-1.4969-1.7735-.1018-.0146-.2035-.0291-.3052-.0291h-1.8021v10.467c0 .2616-.1017.4942-.2907.6832-.1744.1745-.4214.2762-.6685.2762-.0581 0-.1163 0-.1744-.0145-.4505-.0872-.7702-.4652-.7702-.9304v-10.467h-3.6042v10.467c0 .2617-.1018.4943-.2907.6833-.1744.1744-.4215.2762-.6685.2762-.0291-.0291-.0872-.0291-.1454-.0436ZM60.0945 27.9846c-.4506-.0726-.7703-.4652-.7703-.9304 0-.2616.1017-.4942.2761-.6687.1744-.1744.4215-.2762.6831-.2762.7993 0 1.4969-.5233 1.7294-1.2793l.9737-3.2709-3.2118-10.7141c-.1598-.5088.1308-1.0467.6395-1.19208.1453-.04361.2761-.04361.4215-.01453.3487.05815.6394.30528.7557.63961l2.3834 7.9956 2.4125-7.9956c.1162-.45063.5958-.74138 1.1045-.65415l.0727.01454c.5086.15991.7993.69781.6394 1.20661l-3.299 11.0048-1.0464 3.5181c-.2616.8141-.7266 1.4683-1.337 1.9044-.654.4797-1.4243.7414-2.2236.7414-.0872-.0145-.1453-.0291-.2034-.0291ZM.799318 22.882C.319727 22.7948 0 22.4023 0 21.908V4.87014c0-.27621.101731-.52335.290661-.6978.18893-.18899.435991-.29075.697586-.29075.058133 0 .116263 0 .174393.01454.47959.08722.81385.49427.81385.97401V9.7111h1.87477c.21799 0 .45052.01454.66852.05815 1.84569.31985 3.18273 1.91895 3.18273 3.79425v5.4952c0 2.1224-1.72943 3.8524-3.85125 3.8524H.988247c-.058132-.0145-.130797-.0145-.188929-.0291Zm1.177172-1.9625h1.87477c1.03184 0 1.87476-.8432 1.87476-1.8754v-5.4806c0-.9158-.65399-1.6863-1.55504-1.8462-.10173-.0146-.21799-.0291-.31972-.0291H1.97649v9.2313ZM13.3996 22.9545c-1.8311-.3198-3.1682-1.9189-3.1682-3.7943V13.447c0-1.0321.3924-1.9916 1.1191-2.7185.7266-.7269 1.6858-1.11937 2.7177-1.11937.218 0 .4505.01454.6685.05815 1.8457.31982 3.1827 1.91892 3.1827 3.79432v5.7132c0 1.0321-.4069 1.9916-1.1336 2.7185-.7266.7268-1.6858 1.1194-2.7176 1.1194-.218 0-.4506-.0146-.6686-.0582Zm.9883-11.3537c-.1017-.0146-.218-.0291-.3197-.0291-1.0464 0-1.8748.8286-1.8748 1.8753v5.7132c0 .9159.6395 1.6864 1.5405 1.8463.1017.0145.218.0291.3343.0291 1.0318 0 1.8747-.8432 1.8747-1.8754V13.447c0-.9158-.654-1.6863-1.555-1.8462ZM23.6164 22.9546c-1.8311-.3198-3.1682-1.9189-3.1682-3.7942v-5.7132c0-2.1225 1.7295-3.85247 3.8513-3.85247.218 0 .4505.01453.6685.05815 1.8457.31982 3.1828 1.91892 3.1828 3.79432v5.7132c0 1.0321-.407 1.9916-1.1336 2.7185-.7267.7268-1.6859 1.1194-2.7177 1.1194-.2325.0145-.4651 0-.6831-.0437Zm1.0028-11.3537c-.1017-.0145-.218-.0291-.3197-.0291-1.0464 0-1.8748.8287-1.8748 1.8754v5.7132c0 .9158.6395 1.6863 1.5405 1.8462.1018.0146.218.0291.3343.0291.4941 0 .9592-.189 1.3225-.5379.3633-.3489.5523-.8286.5523-1.3229v-5.7277c0-.9159-.654-1.6864-1.5551-1.8463ZM31.479 22.9983c-.4796-.0872-.7993-.4797-.7993-.974V4.87014c0-.27621.1017-.52335.2906-.6978.189-.18899.436-.29075.6976-.29075.0582 0 .1163 0 .1744.01454.4796.08722.8139.49427.8139.97401V15.0318l4.5488-5.08809c.2326-.24714.5668-.36344.9156-.30529.1889.02908.3488.1163.4941.2326.407.37798.436.98858.0727 1.39558L35.2576 15.09l3.5606 6.4982c.1308.2181.1599.4797.0872.7269-.0727.2471-.2471.4652-.4796.5815-.1889.1163-.4215.1454-.654.1163-.2906-.0582-.5522-.2181-.683-.4652l-3.1973-5.8731-1.2208 1.3374v4.0414c0 .2617-.1017.5234-.2906.7123-.189.189-.436.2763-.6976.2763-.0872-.0291-.1454-.0291-.2035-.0437ZM75.0491 22.9836c-1.1045-.189-2.0056-.8286-2.5724-1.8027-.1308-.218-.1599-.4942-.0872-.7559.0727-.2617.2325-.4652.4505-.596.189-.1163.436-.1454.6686-.1163.2906.0581.5522.218.683.4797.2616.4361.6685.7269 1.1772.8141.5522.0872 1.0464-.0582 1.4678-.4216.3779-.3489.5813-.8577.5232-1.352-.0291-.5233-.2761-.974-.7121-1.2793l-2.6596-1.8898c-.8719-.6106-1.4242-1.5846-1.5114-2.6749-.0581-1.1049.3633-2.1516 1.1627-2.8494.7847-.72683 1.8602-1.06119 2.9356-.91582 1.1191.20353 2.0347.82862 2.5578 1.75902.1308.2181.1599.4943.0872.7414-.0726.2617-.2325.4798-.4505.5961-.1889.1163-.436.1453-.654.1163-.2906-.0582-.5522-.2181-.683-.4798-.218-.3925-.6395-.6687-1.1191-.7559-.5086-.0873-.9737.0581-1.337.3925-.3343.3198-.5232.785-.4941 1.2647.029.4652.2906.9159.683 1.1921l2.6596 1.8608c.9156.6542 1.4823 1.6718 1.5405 2.7912.0872 1.1194-.3488 2.1806-1.1917 2.9366-.7993.7559-1.9039 1.0903-3.0229.9449h-.1017ZM82.6928 23.0127c-.4796-.0872-.8139-.4942-.8139-.974V4.88454c0-.26167.1017-.52335.2907-.71233.1889-.17445.436-.27621.6976-.27621.0581 0 .1307 0 .1889.01453.4796.08723.7993.47974.7993.97401v4.84097h1.8748c.2325 0 .4505.01454.683.05815 1.8312.31984 3.1682 1.91894 3.1682 3.79424v8.4608c0 .5525-.436.9886-.9882.9886-.0582 0-.1163 0-.1744-.0146-.4796-.0872-.8139-.4942-.8139-.974v-8.4608c0-.9158-.6394-1.6863-1.5405-1.8462-.1017-.0146-.218-.0291-.3342-.0291h-1.8748v10.3361c0 .5525-.436.9886-.9882.9886-.0582 0-.1163 0-.1744-.0146ZM95.2639 22.969c-1.8312-.3198-3.1682-1.9189-3.1682-3.7942v-5.7132c0-2.1225 1.7294-3.85247 3.8512-3.85247.218 0 .4506.01454.6686.05815 1.8457.31982 3.1827 1.91892 3.1827 3.79432v5.7277c0 1.0322-.4069 1.9916-1.1336 2.7185-.7266.7269-1.6858 1.1194-2.7177 1.1194-.2325 0-.465-.0145-.683-.0582Zm1.0028-11.3537c-.1018-.0145-.218-.0291-.3198-.0291-.5086 0-.9737.189-1.3225.5524-.3488.3489-.5522.8287-.5522 1.323v5.7277c0 .9159.6394 1.6864 1.5405 1.8463.1163.0145.218.029.3342.029.4942 0 .9592-.1889 1.3225-.5378.3634-.3489.5523-.8287.5523-1.323v-5.7422c-.0145-.9159-.6685-1.6864-1.555-1.8463ZM114.971 10.8303c.058-.2471.029-.5088-.102-.7268-.131-.21809-.363-.378-.64-.45069-.058-.01454-.116-.01454-.174-.01454-.451 0-.843.30529-.959.74143-.015.0436-1.076 4.3321-1.904 7.5885l-.015.0727-.014-.0727c-.814-3.2564-1.889-7.5449-1.904-7.5885-.087-.378-.378-.66874-.756-.72689-.058-.01454-.116-.01454-.174-.01454-.436 0-.814.30529-.945.74143-.014.0436-1.075 4.3321-1.904 7.5885l-.014.0727-.015-.0727c-.813-3.2564-1.889-7.5449-1.903-7.5885-.088-.378-.393-.6542-.771-.72689-.13-.02907-.261-.01454-.392.01454-.523.13084-.843.65415-.712 1.16295l2.863 11.441c.102.378.407.6542.77.7269.044.0145.102.0145.16.0145.465 0 .843-.2907.93-.7414.015-.0436 1.09-4.3321 1.904-7.6031l.014-.0727.015.0727c.843 3.2855 1.904 7.6031 1.904 7.6031.116.378.407.6542.77.7269.058.0145.102.0145.16.0145.465 0 .843-.3053.93-.7414l2.878-11.441Z"/>
  </g>
  <defs>
    <clipPath id="a">
      <path fill="#fff" d="M0 0h115v33H0z"/>
    </clipPath>
  </defs>
</svg>