<svg xmlns="http://www.w3.org/2000/svg" xmlns:xlink="http://www.w3.org/1999/xlink" version="1.1" viewBox="0 0 56.19 56.19"><defs id="SvgjsDefs2018"/><g xmlns:name="symbol_mainfill" id="SvgjsG2020" rel="mainfill" name="symbol" fill="#ffffff" transform="translate(-5.702611940298502,-5.078678899736542) scale(0.670895522388059)"><title xmlns="http://www.w3.org/2000/svg">Artboard 18</title><path xmlns="http://www.w3.org/2000/svg" d="M13.5,91.32H87.25a5,5,0,0,0,5-5V12.57a5,5,0,0,0-5-5H13.5a5,5,0,0,0-5,5V86.32A5,5,0,0,0,13.5,91.32ZM53,64.18H79.5a3,3,0,0,1,0,6H53a3,3,0,0,1,0-6ZM21.13,31.83a3,3,0,0,1,4.24-4.24L44.11,46.32a3,3,0,0,1,0,4.24L25.37,69.3a3,3,0,0,1-4.24-4.24L37.75,48.44Z"/></g></svg>