<svg xmlns="http://www.w3.org/2000/svg" xmlns:xlink="http://www.w3.org/1999/xlink" version="1.1" viewBox="0 0 320.2804870605468 56.18749999999994"><g id="SvgjsG2019" rel="mainfill" name="main_text" xmlns:name="mainText_mainfill" fill="#ffffff" transform="translate(69.78349769115442,3.2897481918334677)"><path d="M23.205 37.011 l0 -11.973 c0 -0.234 0.234 -0.429 0.468 -0.429 s0.429 0.195 0.429 0.429 l0 12.207 c0.039 0.156 -0.078 0.312 -0.195 0.429 c-2.301 1.287 -4.836 1.989 -7.449 1.989 c-6.747 0 -11.232 -3.627 -13.299 -8.307 c-1.677 -3.744 -1.755 -8.268 -0.195 -12.129 c1.95 -4.758 6.396 -8.541 13.494 -8.775 c2.301 -0.078 4.485 0.312 6.669 1.014 c0.234 0.078 0.39 0.351 0.312 0.585 c-0.117 0.234 -0.351 0.351 -0.585 0.273 c-2.067 -0.663 -4.173 -1.014 -6.357 -0.936 c-6.708 0.195 -10.842 3.705 -12.714 8.19 c-1.443 3.627 -1.404 7.878 0.195 11.427 c1.95 4.368 6.162 7.722 12.48 7.722 c2.34 0 4.68 -0.546 6.747 -1.716 l0 0 z M22.464 17.121 c0.234 0.117 0.351 0.39 0.234 0.585 c-0.078 0.234 -0.351 0.351 -0.585 0.234 c-1.794 -0.78 -3.705 -1.014 -5.616 -0.897 c-3.822 0.117 -6.201 2.184 -7.254 4.797 c-0.858 2.106 -0.819 4.641 0.117 6.708 c1.131 2.574 3.471 4.524 7.098 4.524 c0.351 0 0.702 0 1.092 -0.078 l0 -7.956 c0 -0.234 0.195 -0.429 0.468 -0.429 c0.234 0 0.429 0.195 0.429 0.429 l0 8.385 c0 0.234 -0.156 0.429 -0.39 0.429 c-0.507 0.117 -1.053 0.156 -1.599 0.156 c-4.017 0 -6.708 -2.223 -7.917 -5.109 c-1.014 -2.301 -1.053 -5.07 -0.156 -7.41 c1.17 -2.925 3.861 -5.226 8.073 -5.382 c2.028 -0.078 4.134 0.156 6.006 1.014 l0 0 z M42.549 27.378 c0.273 0 0.468 0.195 0.468 0.468 c0 0.234 -0.195 0.429 -0.468 0.429 l-5.811 0 l0 4.68 l8.424 0 c0.234 0 0.429 0.195 0.429 0.468 c0 0.234 -0.195 0.429 -0.429 0.429 l-8.853 0 c-0.273 0 -0.468 -0.195 -0.468 -0.429 l0 -5.577 c0 -0.273 0.195 -0.468 0.468 -0.468 l6.24 0 l0 0 z M45.162 16.263 c0.234 0 0.429 0.195 0.429 0.429 c0 0.273 -0.195 0.468 -0.429 0.468 l-8.424 0 l0 4.641 l5.811 0 c0.273 0 0.468 0.234 0.468 0.468 s-0.195 0.468 -0.468 0.468 l-6.24 0 c-0.273 0 -0.468 -0.234 -0.468 -0.468 l0 -5.577 c0 -0.234 0.195 -0.429 0.468 -0.429 l8.853 0 l0 0 z M45.162 38.532 c0.234 0 0.429 0.195 0.429 0.468 c0 0.234 -0.195 0.429 -0.429 0.429 l-14.43 0 c-0.273 0 -0.468 -0.195 -0.468 -0.429 l0 -27.885 c0 -0.234 0.195 -0.429 0.468 -0.429 l14.43 0 c0.234 0 0.429 0.195 0.429 0.429 c0 0.273 -0.195 0.468 -0.429 0.468 l-14.001 0 l0 26.949 l14.001 0 l0 0 z M63.102000000000004 27.378 c0.273 0 0.468 0.195 0.468 0.468 c0 0.234 -0.195 0.429 -0.468 0.429 l-5.811 0 l0 4.68 l8.424 0 c0.234 0 0.429 0.195 0.429 0.468 c0 0.234 -0.195 0.429 -0.429 0.429 l-8.853 0 c-0.273 0 -0.468 -0.195 -0.468 -0.429 l0 -5.577 c0 -0.273 0.195 -0.468 0.468 -0.468 l6.24 0 l0 0 z M65.715 16.263 c0.234 0 0.429 0.195 0.429 0.429 c0 0.273 -0.195 0.468 -0.429 0.468 l-8.424 0 l0 4.641 l5.811 0 c0.273 0 0.468 0.234 0.468 0.468 s-0.195 0.468 -0.468 0.468 l-6.24 0 c-0.273 0 -0.468 -0.234 -0.468 -0.468 l0 -5.577 c0 -0.234 0.195 -0.429 0.468 -0.429 l8.853 0 l0 0 z M65.715 38.532 c0.234 0 0.429 0.195 0.429 0.468 c0 0.234 -0.195 0.429 -0.429 0.429 l-14.43 0 c-0.273 0 -0.468 -0.195 -0.468 -0.429 l0 -27.885 c0 -0.234 0.195 -0.429 0.468 -0.429 l14.43 0 c0.234 0 0.429 0.195 0.429 0.429 c0 0.273 -0.195 0.468 -0.429 0.468 l-14.001 0 l0 26.949 l14.001 0 l0 0 z M72.267 39 c0 0.234 -0.195 0.429 -0.429 0.429 c-0.273 0 -0.468 -0.195 -0.468 -0.429 l0 -27.885 c0 -0.234 0.195 -0.429 0.468 -0.429 c0.234 0 0.429 0.195 0.429 0.429 l0 27.885 l0 0 z M83.42099999999999 10.841999999999999 c0.156 -0.195 0.429 -0.234 0.663 -0.078 c0.195 0.156 0.234 0.429 0.078 0.624 l-6.396 8.58 c-0.156 0.195 -0.429 0.234 -0.624 0.078 c-0.156 -0.078 -0.195 -0.234 -0.195 -0.39 l0 -8.541 c0 -0.234 0.195 -0.429 0.468 -0.429 c0.234 0 0.429 0.195 0.429 0.429 l0 7.215 l5.577 -7.488 l0 0 z M84.747 38.727 c0.117 0.195 0.078 0.468 -0.117 0.624 s-0.468 0.078 -0.624 -0.117 l-6.162 -8.619 l0 8.385 c0 0.234 -0.195 0.429 -0.429 0.429 c-0.273 0 -0.468 -0.195 -0.468 -0.429 l0 -9.75 c0 -0.156 0.078 -0.312 0.195 -0.39 c0.195 -0.156 0.468 -0.117 0.624 0.117 l6.981 9.75 l0 0 z M90.207 10.841999999999999 c0.156 -0.195 0.429 -0.234 0.663 -0.078 c0.195 0.156 0.234 0.429 0.078 0.624 l-9.516 13.065 l10.101 14.274 c0.156 0.195 0.078 0.468 -0.117 0.624 s-0.468 0.078 -0.624 -0.117 l-10.296 -14.508 l0 0 c-0.117 -0.156 -0.117 -0.39 0 -0.546 l9.711 -13.338 l0 0 z M99.333 11.349 c-0.156 -0.234 -0.078 -0.507 0.156 -0.624 c0.195 -0.117 0.468 -0.039 0.585 0.156 l5.304 9.009 l5.304 -9.009 c0.195 -0.195 0.429 -0.273 0.663 -0.156 c0.195 0.117 0.273 0.39 0.156 0.624 l-5.694 9.672 c-0.195 0.312 -0.624 0.312 -0.819 0 l-5.655 -9.672 l0 0 z M117.507 10.881 c0.156 -0.195 0.429 -0.273 0.624 -0.156 c0.234 0.156 0.273 0.429 0.156 0.624 l-9.672 15.327 l0 12.246 c0 0.312 -0.195 0.507 -0.429 0.507 s-0.429 -0.195 -0.429 -0.507 l0 -12.363 c0 -0.078 0 -0.156 0.039 -0.273 l9.711 -15.405 l0 0 z M103.077 38.922 c0 0.312 -0.195 0.507 -0.468 0.507 s-0.468 -0.195 -0.468 -0.507 l0 -12.246 l-9.594 -15.327 c-0.156 -0.195 -0.078 -0.468 0.117 -0.624 c0.195 -0.117 0.468 -0.039 0.624 0.156 l9.711 15.405 c0.039 0.078 0.078 0.156 0.078 0.234 l0 12.402 l0 0 z  M144.963 27.378 c0.585 0 0.585 0.936 0 0.936 l-5.811 0 l0 10.686 c0 0.585 -0.936 0.585 -0.936 0 l0 -11.154 c0 -0.273 0.195 -0.468 0.468 -0.468 l6.279 0 l0 0 z M147.537 16.263 c0.585 0 0.585 0.897 0 0.897 l-8.385 0 l0 4.641 l5.811 0 c0.585 0 0.585 0.936 0 0.936 l-6.279 0 c-0.273 0 -0.468 -0.234 -0.468 -0.468 l0 -5.577 c0 -0.234 0.195 -0.429 0.468 -0.429 l8.853 0 l0 0 z M133.57500000000002 39 c0 0.585 -0.936 0.585 -0.936 0 l0 -27.885 c0 -0.234 0.234 -0.429 0.468 -0.429 l14.43 0 c0.585 0 0.585 0.897 0 0.897 l-13.962 0 l0 27.417 l0 0 z M159.978 30.849 c-0.234 0 -0.468 -0.195 -0.468 -0.429 s0.234 -0.429 0.468 -0.429 l3.471 0 l-1.833 -4.446 c-0.078 -0.234 0.039 -0.507 0.234 -0.585 c0.273 -0.117 0.507 0 0.624 0.273 l2.028 4.992 c0.039 0.078 0.039 0.117 0.039 0.195 c0 0.234 -0.195 0.429 -0.468 0.429 l-4.095 0 l0 0 z M157.053 38.727 c-0.078 0.273 -0.312 0.351 -0.546 0.273 c-0.273 -0.078 -0.39 -0.39 -0.273 -0.585 l1.053 -2.535 c0.039 -0.195 0.234 -0.273 0.429 -0.273 l8.658 0 c0.234 0 0.39 0.117 0.429 0.273 l1.053 2.535 c0.078 0.195 -0.039 0.507 -0.273 0.585 s-0.468 0 -0.585 -0.273 l-0.936 -2.262 l-8.073 0 l-0.936 2.262 l0 0 z M151.00799999999998 38.727 c-0.078 0.273 -0.351 0.351 -0.585 0.273 s-0.351 -0.39 -0.234 -0.585 l11.427 -28.041 c0.156 -0.429 0.702 -0.39 0.858 0 l11.427 28.041 c0.078 0.195 0 0.507 -0.234 0.585 s-0.507 0 -0.585 -0.273 l-11.037 -27.027 l-11.037 27.027 l0 0 z M183.339 28.820999999999998 l0 -17.667 c0 -0.234 0.195 -0.429 0.429 -0.429 s0.429 0.195 0.429 0.429 l0 17.667 c0 2.457 1.716 4.212 4.134 4.212 c2.457 0 4.134 -1.755 4.134 -4.212 l0 -17.667 c0 -0.234 0.195 -0.429 0.429 -0.429 c0.273 0 0.468 0.195 0.468 0.429 l0 17.667 c0 2.964 -2.106 5.07 -5.031 5.07 s-4.992 -2.106 -4.992 -5.07 l0 0 z M198.081 11.154 c0 -0.234 0.195 -0.429 0.468 -0.429 c0.234 0 0.429 0.195 0.429 0.429 l0 17.979 c0 6.357 -4.68 10.491 -10.647 10.491 c-6.123 0 -10.647 -4.329 -10.647 -10.491 l0 -17.979 c0 -0.234 0.195 -0.429 0.468 -0.429 c0.234 0 0.429 0.195 0.429 0.429 l0 17.979 c0 5.694 4.095 9.594 9.75 9.594 c5.421 0 9.75 -3.744 9.75 -9.594 l0 -17.979 l0 0 z M222.495 38.493 c0.273 0 0.468 0.234 0.468 0.507 c0 0.234 -0.195 0.429 -0.468 0.429 l-19.032 0 c-0.39 0 -0.663 -0.273 -0.507 -0.624 l8.814 -21.645 l-7.488 0 c-0.234 0 -0.429 -0.195 -0.429 -0.507 c0 -0.234 0.195 -0.429 0.429 -0.429 l8.19 0 c0.312 0 0.546 0.273 0.39 0.663 l-8.814 21.606 l18.447 0 l0 0 z M204.282 11.544 c-0.234 0 -0.429 -0.195 -0.429 -0.429 s0.195 -0.468 0.429 -0.468 l16.419 0 c0.39 0 0.585 0.312 0.468 0.663 l-8.814 21.645 l10.14 0 c0.273 0 0.468 0.195 0.468 0.429 c0 0.273 -0.195 0.468 -0.468 0.468 l-10.803 0 c-0.351 0 -0.585 -0.273 -0.429 -0.624 l8.814 -21.684 l-15.795 0 l0 0 z M231.42600000000002 11.349 c-0.156 -0.234 -0.078 -0.507 0.156 -0.624 c0.195 -0.117 0.468 -0.039 0.585 0.156 l5.304 9.009 l5.304 -9.009 c0.195 -0.195 0.429 -0.273 0.663 -0.156 c0.195 0.117 0.273 0.39 0.156 0.624 l-5.694 9.672 c-0.195 0.312 -0.624 0.312 -0.819 0 l-5.655 -9.672 l0 0 z M249.60000000000002 10.881 c0.156 -0.195 0.429 -0.273 0.624 -0.156 c0.234 0.156 0.273 0.429 0.156 0.624 l-9.672 15.327 l0 12.246 c0 0.312 -0.195 0.507 -0.429 0.507 s-0.429 -0.195 -0.429 -0.507 l0 -12.363 c0 -0.078 0 -0.156 0.039 -0.273 l9.711 -15.405 l0 0 z M235.17000000000002 38.922 c0 0.312 -0.195 0.507 -0.468 0.507 s-0.468 -0.195 -0.468 -0.507 l0 -12.246 l-9.594 -15.327 c-0.156 -0.195 -0.078 -0.468 0.117 -0.624 c0.195 -0.117 0.468 -0.039 0.624 0.156 l9.711 15.405 c0.039 0.078 0.078 0.156 0.078 0.234 l0 12.402 l0 0 z"></path></g><defs id="SvgjsDefs2018"></defs><g id="SvgjsG2020" rel="mainfill" name="symbol" xmlns:name="symbol_mainfill" fill="#ffffff" transform="translate(-5.702611940298502,-5.078678899736542) scale(0.670895522388059)"><title xmlns="http://www.w3.org/2000/svg">Artboard 18</title><path xmlns="http://www.w3.org/2000/svg" d="M13.5,91.32H87.25a5,5,0,0,0,5-5V12.57a5,5,0,0,0-5-5H13.5a5,5,0,0,0-5,5V86.32A5,5,0,0,0,13.5,91.32ZM53,64.18H79.5a3,3,0,0,1,0,6H53a3,3,0,0,1,0-6ZM21.13,31.83a3,3,0,0,1,4.24-4.24L44.11,46.32a3,3,0,0,1,0,4.24L25.37,69.3a3,3,0,0,1-4.24-4.24L37.75,48.44Z"></path></g></svg>
