<?xml version="1.0" encoding="utf-8"?>
<!-- Generator: Adobe Illustrator 25.0.0, SVG Export Plug-In . SVG Version: 6.00 Build 0)  -->
<svg version="1.1" id="Layer_1" xmlns="http://www.w3.org/2000/svg" xmlns:xlink="http://www.w3.org/1999/xlink" x="0px" y="0px"
	 viewBox="0 0 191 58" style="enable-background:new 0 0 191 58;" xml:space="preserve">
<g>
	<g transform="translate(-27.000000, -14.000000)">
		<g transform="translate(27.000000, 14.000000)">
			<g>
				<path fill="#fff" d="M29,0C13,0,0,13,0,29s13,29,29,29s29-13,29-29S45,0,29,0z M29,48.3C18.4,48.3,9.7,39.6,9.7,29C9.7,18.3,18.4,9.7,29,9.7
					V29h19.3C48.4,39.6,39.7,48.3,29,48.3z M29,40.5V29H17.5C17.5,35.3,22.7,40.4,29,40.5z M17.5,29c0,6.3,5.2,11.4,11.5,11.5V29
					H17.5z M17.5,29c0,6.3,5.2,11.4,11.5,11.5V29H17.5z"/>
				<path stroke="#000" fill="#000" class="st0" d="M48.3,29c0.1,10.6-8.6,19.3-19.3,19.3C18.4,48.3,9.7,39.6,9.7,29C9.7,18.3,18.4,9.7,29,9.7V29H17.5
					c0,6.3,5.2,11.4,11.5,11.5V29H48.3z"/>
				<path fill="#fff" d="M76.6,33.4c0.5,0,1.1-0.1,1.6-0.3s1-0.5,1.5-0.9c0.4-0.4,0.8-1,1.1-1.6c0.3-0.7,0.4-1.4,0.4-2.4c0-0.9-0.1-1.7-0.4-2.4
					c-0.3-0.7-0.6-1.2-1.1-1.6c-0.4-0.4-0.9-0.7-1.5-0.9c-0.5-0.2-1.1-0.3-1.6-0.3s-1.1,0.1-1.6,0.3c-0.5,0.2-1,0.5-1.5,0.9
					c-0.4,0.4-0.8,1-1.1,1.6c-0.3,0.7-0.4,1.4-0.4,2.4c0,0.9,0.1,1.7,0.4,2.4c0.3,0.7,0.6,1.2,1.1,1.6c0.4,0.4,0.9,0.7,1.5,0.9
					C75.5,33.3,76,33.4,76.6,33.4z M76.6,36c-1,0-2-0.2-2.9-0.5S72,34.7,71.3,34c-0.7-0.7-1.3-1.5-1.7-2.5c-0.4-1-0.6-2.1-0.6-3.4
					s0.2-2.4,0.6-3.4s1-1.8,1.7-2.5s1.5-1.1,2.4-1.5c0.9-0.3,1.9-0.5,2.9-0.5s1.9,0.2,2.9,0.5c0.9,0.3,1.7,0.8,2.4,1.5
					c0.7,0.7,1.3,1.5,1.7,2.5c0.4,1,0.6,2.1,0.6,3.4s-0.2,2.5-0.6,3.4c-0.4,1-1,1.8-1.7,2.5s-1.5,1.1-2.4,1.5
					C78.6,35.8,77.6,36,76.6,36L76.6,36z"/>
				<path fill="#fff" d="M86.6,20.9c0-0.3,0.1-0.4,0.4-0.4h2c0.3,0,0.4,0.1,0.4,0.4v12.2h7.3c0.3,0,0.4,0.1,0.4,0.4v1.8c0,0.3-0.1,0.4-0.4,0.4
					H87c-0.3,0-0.4-0.1-0.4-0.4V20.9L86.6,20.9z"/>
				<path fill="#fff" d="M102.6,27.8l-4-6.7c-0.1-0.1-0.1-0.2-0.1-0.3c0-0.2,0.1-0.3,0.3-0.3h2.4c0.2,0,0.3,0,0.4,0.1c0.1,0,0.2,0.1,0.3,0.3
					l2.5,4.2l2.5-4.2c0.1-0.1,0.2-0.2,0.3-0.3c0.1,0,0.2-0.1,0.4-0.1h2.4c0.2,0,0.3,0.1,0.3,0.3c0,0.1,0,0.2-0.1,0.3l-4,6.7l4.5,7.6
					c0.1,0.1,0.1,0.2,0.1,0.2c0,0.2-0.1,0.2-0.3,0.2h-2.7c-0.2,0-0.3,0-0.4-0.1s-0.2-0.2-0.2-0.3l-2.7-4.6l-2.7,4.6
					c-0.1,0.1-0.2,0.3-0.2,0.3c-0.1,0.1-0.2,0.1-0.4,0.1h-2.6c-0.2,0-0.3-0.1-0.3-0.2c0-0.1,0-0.2,0.1-0.2L102.6,27.8L102.6,27.8z"
					/>
				<path fill="#fff" d="M122.8,28.1c0-0.3,0.1-0.4,0.4-0.4h8.1c0.3,0,0.4,0.1,0.4,0.4v0.3c0,1.1-0.2,2.1-0.5,3.1c-0.3,0.9-0.8,1.7-1.4,2.4
					c-0.6,0.7-1.3,1.2-2.2,1.6c-0.9,0.4-1.8,0.6-2.9,0.6c-1,0-2-0.2-2.9-0.5s-1.8-0.8-2.5-1.5s-1.3-1.5-1.7-2.5
					c-0.4-1-0.7-2.1-0.7-3.5c0-1.3,0.2-2.4,0.7-3.4c0.4-1,1-1.8,1.8-2.5c0.7-0.7,1.6-1.2,2.5-1.5s1.9-0.5,2.9-0.5
					c0.7,0,1.4,0.1,2,0.3c0.6,0.2,1.2,0.4,1.8,0.7c0.5,0.3,1,0.6,1.4,1s0.8,0.8,1.1,1.2c0.1,0.1,0.1,0.2,0.1,0.3
					c0,0.1-0.1,0.2-0.2,0.4l-1.4,1.2c-0.1,0.1-0.3,0.2-0.4,0.2c-0.1,0-0.3-0.1-0.4-0.2c-0.6-0.7-1.2-1.3-1.8-1.7
					c-0.7-0.4-1.4-0.6-2.4-0.6c-0.6,0-1.2,0.1-1.8,0.3c-0.6,0.2-1.1,0.5-1.5,1c-0.4,0.4-0.8,1-1.1,1.6c-0.3,0.6-0.4,1.4-0.4,2.3
					c0,0.8,0.1,1.6,0.4,2.2s0.6,1.2,1.1,1.6c0.4,0.4,0.9,0.8,1.5,1s1.2,0.3,1.8,0.3c1,0,1.9-0.3,2.6-0.8s1.1-1.3,1.4-2.3h-5.4
					c-0.3,0-0.4-0.1-0.4-0.4L122.8,28.1L122.8,28.1z"/>
				<path fill="#fff" d="M140.2,26.3c0.6,0,1.1-0.1,1.5-0.4s0.5-0.6,0.5-1.2c0-0.5-0.2-0.9-0.5-1.2c-0.4-0.3-0.9-0.4-1.5-0.4h-3.3v3.1h3.3V26.3z
					 M134.1,20.9c0-0.3,0.1-0.4,0.4-0.4h5.6c1.6,0,2.9,0.4,3.8,1.1c0.9,0.7,1.3,1.8,1.3,3.1c0,0.6-0.1,1.2-0.3,1.7s-0.5,0.9-0.9,1.3
					c-0.4,0.3-0.8,0.6-1.3,0.8c-0.5,0.2-1,0.3-1.6,0.4l4.7,6.4c0.1,0.1,0.1,0.2,0.1,0.2c0,0.2-0.1,0.2-0.3,0.2h-2.7
					c-0.2,0-0.3,0-0.3-0.1c-0.1-0.1-0.2-0.1-0.2-0.3l-4.8-6.5h-0.5v6.4c0,0.3-0.1,0.4-0.4,0.4h-2c-0.3,0-0.4-0.1-0.4-0.4V20.9H134.1
					z"/>
				<path fill="#fff" d="M154.4,33.4c0.5,0,1.1-0.1,1.6-0.3s1-0.5,1.5-0.9c0.4-0.4,0.8-1,1.1-1.6c0.3-0.7,0.4-1.4,0.4-2.4c0-0.9-0.1-1.7-0.4-2.4
					c-0.3-0.7-0.6-1.2-1.1-1.6c-0.4-0.4-0.9-0.7-1.5-0.9c-0.5-0.2-1.1-0.3-1.6-0.3s-1.1,0.1-1.6,0.3c-0.5,0.2-1,0.5-1.5,0.9
					c-0.4,0.4-0.8,1-1.1,1.6c-0.3,0.7-0.4,1.4-0.4,2.4c0,0.9,0.1,1.7,0.4,2.4c0.3,0.7,0.6,1.2,1.1,1.6c0.4,0.4,0.9,0.7,1.5,0.9
					C153.3,33.3,153.8,33.4,154.4,33.4z M154.4,36c-1,0-2-0.2-2.9-0.5s-1.7-0.8-2.4-1.5s-1.3-1.5-1.7-2.5s-0.6-2.1-0.6-3.4
					s0.2-2.4,0.6-3.4c0.4-1,1-1.8,1.7-2.5s1.5-1.1,2.4-1.5c0.9-0.3,1.9-0.5,2.9-0.5s1.9,0.2,2.9,0.5c0.9,0.3,1.7,0.8,2.4,1.5
					s1.3,1.5,1.7,2.5s0.6,2.1,0.6,3.4s-0.2,2.5-0.6,3.4c-0.4,1-1,1.8-1.7,2.5s-1.5,1.1-2.4,1.5C156.3,35.8,155.4,36,154.4,36
					L154.4,36z"/>
				<path fill="#fff" d="M164.3,20.9c0-0.3,0.1-0.4,0.4-0.4h2c0.3,0,0.4,0.1,0.4,0.4v8.4c0,0.8,0.1,1.4,0.3,1.9s0.4,0.9,0.7,1.2s0.7,0.5,1.1,0.7
					c0.4,0.1,0.8,0.2,1.3,0.2s0.9-0.1,1.3-0.2c0.4-0.1,0.8-0.4,1.1-0.7s0.5-0.7,0.7-1.2s0.3-1.2,0.3-1.9v-8.4c0-0.3,0.1-0.4,0.4-0.4
					h2c0.3,0,0.4,0.1,0.4,0.4V29c0,2.3-0.5,4.1-1.6,5.2s-2.6,1.7-4.6,1.7s-3.5-0.6-4.6-1.7c-1.1-1.1-1.6-2.9-1.6-5.2L164.3,20.9
					L164.3,20.9z"/>
				<path fill="#fff" d="M185.6,27.3c1.7,0,2.5-0.7,2.5-2.1s-0.8-2.1-2.5-2.1h-3.2v4.1h3.2V27.3z M179.6,20.9c0-0.3,0.1-0.4,0.4-0.4h5.9
					c0.9,0,1.6,0.1,2.2,0.4c0.6,0.2,1.2,0.6,1.6,1s0.7,0.9,0.9,1.5s0.3,1.2,0.3,1.9c0,0.6-0.1,1.2-0.3,1.8c-0.2,0.6-0.5,1.1-0.9,1.5
					s-0.9,0.8-1.5,1s-1.3,0.4-2.1,0.4h-3.7v5.4c0,0.3-0.1,0.4-0.4,0.4h-2c-0.3,0-0.4-0.1-0.4-0.4V20.9L179.6,20.9z"/>
			</g>
		</g>
	</g>
</g>
</svg>
