<svg xmlns="http://www.w3.org/2000/svg" xmlns:xlink="http://www.w3.org/1999/xlink" version="1.0" id="Layer_1" x="0px" y="0px" style="enable-background:new 0 0 909 627;" xml:space="preserve" viewBox="90.47 166.4 728.03 294.22">
<style type="text/css">
	.st0{fill:#0773AF;}
	.st1{fill:#FFF;}
	.st2{fill:#FFFFFF;}
	.st3{fill:none;}
</style>
<path class="st0" d="M243.9,166.5h142.3c5.8,0.3,10.4,5,10.7,10.7v268.8c0.1,1.6-0.1,3.2-0.4,4.7c-1.3,4.4-5.1,7.7-9.6,8.4  c-1.1,0-2.2,0.2-3.5,0.2H104c-1.2,0-2.3,0-3.5-0.2c-5.6-0.7-9.9-5.4-10-11.1V179.5c-0.1-1.5,0.1-3.1,0.4-4.5  c1.3-4.9,5.7-8.4,10.7-8.6h2.7C150.9,166.5,197.5,166.6,243.9,166.5z M238.1,410.6c0.3-0.1,0.5-0.3,0.7-0.5  c5.1-4.7,10.2-9.6,15.3-14.4l0.2-0.2v-0.4c-4.7-5.5-9.8-10.9-14.6-16.4c0.6-0.5,0.7-1.1,1.3-1.5c1.5-1.6,2.9-3.5,4.6-5.1  c1.6-1.5,2-3.3,2-5.5V246.4c0.1-1.2-0.4-2.4-1.3-3.3c-5.3-5.8-10.4-11.6-15.6-17.5c-0.3-0.4-0.5-0.7-0.7-1.1  c-10-0.4-83.9-0.2-85.9,0.2c-5.3,5.8-10.5,11.8-15.8,17.7c-2.4,2.5-2,1.6-2,4.9V368c-0.2,1.2,0.2,2.3,1.1,3.1  c1.5,1.6,2.9,3.3,4.4,4.9c4.2,4.5,8.2,9.3,12.4,13.8h73c2.7,0,2.2-0.4,4,1.8l15.7,17.3C237.2,409.5,237.7,410,238.1,410.6z   M286.5,266.1c-0.3,0-0.6-0.1-0.9-0.2h-25.1c-0.4,0-0.7,0.2-1.3,0.2v102.8c-0.1,1.4,0.5,2.7,1.5,3.6l14.7,15.8  c0.6,0.6,1.2,1.3,1.8,1.8h69.2c0.7,0,1.3-0.2,1.8-0.7c0.4-0.4,0.5-0.7,0.9-0.9c4.9-5.1,9.6-10.4,14.6-15.5c0.5-0.5,1.1-1.3,1.8-2  V267.2c0-0.4-0.2-0.9-0.2-1.3c-0.5,0-0.9-0.2-1.3-0.2h-25.5c-0.1,0-0.2,0.1-0.2,0.2c-0.2,0.9-0.3,1.9-0.2,2.9v90.1  c0,0.4-0.2,0.9-0.2,1.5h-49.1c-0.7,0-1.5,0-2.2-0.2v-93.4C286.6,266.6,286.5,266.3,286.5,266.1z"/>
<path class="st1" d="M423.4,229.9c0.6,0.4,1.2,1,1.6,1.6c6,6.2,12,12.4,18,18.4c0.8,0.7,1.3,1.8,1.3,2.9V273  c0.4,0.1,0.8,0.2,1.3,0.2h58.2c0.8-0.1,1.7,0.3,2.2,0.9c4.4,4.7,8.9,9.6,13.5,14.4c0.7,0.6,1.1,1.5,0.9,2.4v81.7  c0,3.3,0.4,2.4-2,4.7c-4,4-8.2,8-12.2,12.2c-0.9,0.9-2,1.4-3.3,1.5h-63c-0.6,0-1.2-0.2-1.6-0.7c-0.4-0.4-0.5-0.7-0.9-1.1  c-4.4-4.7-8.5-9.5-12.9-14.2c-0.9-0.9-1.3-2.1-1.3-3.3V233.1C423.3,232.1,423.4,231,423.4,229.9z M499.1,369.6  c0.1-0.3,0.2-0.6,0.2-0.9v-73.5c0-0.4-0.2-0.5-0.2-0.9c-0.9-0.1-1.8-0.2-2.7-0.2h-50.6c-0.4,0-0.9,0.2-1.5,0.2v73.9  c0,0.4,0.2,0.9,0.2,1.5H498C498.4,369.8,498.7,369.6,499.1,369.6L499.1,369.6z"/>
<path class="st1" d="M716.6,391.1c-0.4-0.4-0.7-0.9-1.1-1.3c-4-4.4-8-8.7-12.2-13.1c-0.9-0.8-1.4-2.1-1.3-3.3v-83  c0-1.2,0.4-2.4,1.3-3.3c4.2-4.4,8.2-8.7,12.2-13.1c0.8-1,2-1.5,3.3-1.5h58.4l1.5,1.5c4,4.4,8.2,8.7,12.2,13.1  c0.8,0.7,1.3,1.8,1.3,2.9V342c-0.5,0-0.9,0.2-1.3,0.2h-65.5c-1-0.1-2-0.1-2.9,0.2c0,0.5-0.2,0.9-0.2,1.5c-0.2,6.4,0,23.5,0.2,25.7  c0.4,0,0.7,0.2,1.3,0.2h65.5c0.9-0.1,1.8-0.1,2.7,0.2c-0.1,0.7-0.4,1.3-0.9,1.8l-10.9,15.9c-0.5,0.7-1,1.4-1.5,2.2  c-0.4,0.8-1.3,1.3-2.2,1.1h-56.8C718.7,391.1,717.6,391.2,716.6,391.1z M722,321.6c0.8,0.2,1.7,0.3,2.5,0.2h45.3  c0.9,0.1,1.7,0.1,2.5-0.2c0-0.5,0.2-0.9,0.2-1.3v-23.5c0.1-0.9,0-1.8-0.4-2.5h-48.6c-0.5,0-1.1,0.2-1.8,0.2  C722,303.4,722,312.3,722,321.6L722,321.6z"/>
<path class="st1" d="M626.8,391.1h-71.3c-4.7-4.9-9.5-10-14.4-15.1v-85.2c0-3.1-0.4-2.2,1.8-4.5c3.6-3.8,7.3-7.8,10.9-11.6  c0.9-1,2.2-1.6,3.6-1.6h67.7c0.6,0,1.2,0.2,1.6,0.7c0.2,0.4,0.5,0.5,0.7,0.7c4,4.2,8,8.6,12,12.7c0.9,0.9,1.4,2.2,1.3,3.5v82.6  c0,1.2-0.4,2.4-1.3,3.3L627,390.2C627.4,390.6,627,390.8,626.8,391.1z M621.4,295c-0.2-0.2-0.2-0.4-0.4-0.4c-0.1,0-0.3-0.1-0.4-0.2  h-59.3l-0.4,0.4V368c0,0.5,0.2,1.1,0.2,1.5c0.9,0.2,1.8,0.3,2.7,0.2h56.4c0.5-0.1,1-0.2,1.5-0.4v-73.5  C621.4,295.8,621.4,295.2,621.4,295L621.4,295z"/>
<path class="st1" d="M681.6,390.8c-0.3,0.1-0.6,0.2-0.9,0.2h-17.8c-0.2,0-0.4-0.2-0.7-0.2c0-0.4-0.2-0.9-0.2-1.3V231.9  c0.9-0.4,1.1,0.2,1.5,0.5c4.2,4.2,8.2,8.4,12.4,12.6c1.6,1.6,3.3,3.5,5.1,5.1c0.7,0.5,1,1.3,0.9,2.2v135.4  C681.7,388.7,681.6,389.7,681.6,390.8z"/>
<path class="st1" d="M803,273.7c-8.6,0.1-15.6-6.9-15.7-15.5c-0.1-8.6,6.9-15.6,15.5-15.7c8.6-0.1,15.6,6.9,15.7,15.5  c0,0.1,0,0.1,0,0.2C818.7,266.8,811.4,273.7,803,273.7z M803,244.6c-7.5,0-13.6,6-13.6,13.5c0,7.5,6,13.6,13.5,13.6  c7.5,0,13.6-6,13.6-13.5c0.2-7.4-5.7-13.5-13-13.6C803.3,244.6,803.2,244.6,803,244.6L803,244.6z"/>
<path class="st0" d="M153.6,254.1c0.4,0,0.7-0.2,1.1-0.2h64.6c0.1,0.4,0.2,0.9,0.4,1.3v103.6c0.1,1,0.1,2-0.2,2.9  c-0.4,0-0.6,0.2-0.7,0.2h-64.3c-0.2,0-0.4-0.2-0.7-0.2c0-0.4-0.2-0.9-0.2-1.3V257.2C153.3,256.1,153,255,153.6,254.1z"/>
<path class="st1" d="M806.1,258.4c1.5,1.6,2.8,3.4,3.8,5.3c-1.6,0.5-1.8,0.5-2.5-0.5l-1.6-2.7c-0.7-1.6-2.5-2.5-4.2-2  c-0.3,0-0.5,0.1-0.7,0.2c0,0.5-0.2,0.9-0.2,1.5c0,1.3,0,2.6-0.2,3.8H799c0-0.4-0.2-0.7-0.2-1.1c-0.2-5.5-0.2-9.8,0.4-11.5  c0.2,0,0.5-0.2,0.7-0.2h5.3c0.6,0,1.2,0.2,1.8,0.4c1.2,0.3,2.1,1.3,2.2,2.5c0.2,1.3-0.3,2.6-1.3,3.5  C807.4,257.9,806.7,258.2,806.1,258.4z M800.7,256.8c0.4,0,0.5,0.2,0.9,0.2h2.9c0.5,0,1-0.1,1.5-0.4c1-0.3,1.6-1.5,1.2-2.5  c0-0.1-0.1-0.2-0.1-0.3c-0.3-0.6-0.9-1-1.6-1.1c-1.6-0.2-3.2-0.2-4.7,0C800.5,254.1,800.5,255.5,800.7,256.8z"/>
<path class="st2" d="M338.2,359.1c0,0.4-0.2,0.9-0.2,1.5h-49.1c-0.7,0-1.5,0-2.2-0.2V267c0-0.4-0.2-0.7-0.2-1.1  c-0.3,0-0.6-0.1-0.9-0.2h-25.1c-0.4,0-0.7,0.2-1.3,0.2v102.8c-0.1,1.4,0.5,2.7,1.5,3.6l14.7,15.8c0.6,0.7,1.2,1.3,1.8,1.8h69.2  c0.7,0,1.3-0.2,1.8-0.7c0.4-0.4,0.5-0.7,0.9-0.9c4.9-5.1,9.6-10.4,14.6-15.5c0.5-0.5,1.1-1.3,1.8-2V267c0-0.4-0.2-0.9-0.2-1.3  c-0.5,0-0.9-0.2-1.3-0.2h-25.5c-0.1,0-0.2,0.1-0.2,0.2c-0.2,0.9-0.3,1.9-0.2,2.9V359.1L338.2,359.1z"/>
<path class="st2" d="M127.3,370.9l4.4,4.9c4.2,4.5,8.2,9.3,12.4,13.8h73c2.7,0,2.2-0.4,4,1.8l15.7,17.3c0.6,0.6,1.1,1.2,1.6,1.8  c0.3-0.1,0.5-0.3,0.7-0.5c5.1-4.7,10.2-9.6,15.3-14.4l0.2-0.2v-0.4c-4.7-5.5-9.8-10.9-14.6-16.4c0.6-0.5,0.7-1.1,1.3-1.5  c1.4-1.6,2.9-3.5,4.6-5.1c1.6-1.5,2-3.3,2-5.5V246.4c0.1-1.2-0.4-2.4-1.3-3.3c-5.3-5.8-10.4-11.6-15.6-17.5  c-0.4-0.4-0.5-0.9-0.7-1.1c-10.2-0.4-84.1-0.2-86.1,0.2c-5.3,5.8-10.5,11.8-15.9,17.7c-2.4,2.5-2,1.6-2,4.9V368  C126,369.1,126.4,370.2,127.3,370.9z M153.6,254.1c0.4,0,0.7-0.2,1.1-0.2h64.6c0.1,0.4,0.2,0.9,0.4,1.3v103.6c0.1,1,0.1,2-0.2,2.9  c-0.4,0-0.6,0.2-0.7,0.2h-64.3c-0.2,0-0.4-0.2-0.7-0.2c0-0.4-0.2-0.9-0.2-1.3V257.2C153.3,256.1,153,255,153.6,254.1z"/>
<g id="Layer_2">
	<g id="Layer_1-2">
		<path class="st0" d="M442.1,447h-13.5l-2.4,5.8h-3.6l10.5-26.6h4.2l10.7,26.6h-3.6L442.1,447z M429.8,444.1h11.5l-5.6-14.7    L429.8,444.1z"/>
		<path class="st0" d="M464,440.3c0-3.5-1.6-4.4-4.4-4.4c-2.2,0-4.3,1.1-5.6,2.9v14H451v-19.1h3.1v2.7c1.8-2,4.3-3.1,6.9-3.3    c4,0,6.2,2,6.2,6.2v13.5h-2.9L464,440.3z"/>
		<path class="st0" d="M482.5,426.4h3.3V453h-3.3V426.4z"/>
		<path class="st0" d="M505.3,449.9c-1.6,2.1-4,3.3-6.6,3.3c-5.1,0-8.5-3.8-8.5-10s3.5-10,8.5-10c2.6,0,5,1.3,6.6,3.5v-10.2h2.9V453    h-2.9V449.9z M505.3,439c-1.3-1.9-3.5-3.1-5.8-3.1c-3.8,0-6.2,3.1-6.2,7.5c0,4.2,2.4,7.5,6.2,7.5c2.3,0,4.5-1.2,5.8-3.1V439z"/>
		<path class="st0" d="M522.2,433.2c5.8,0,9.3,4.5,9.3,10.4v0.7H516c0,3.6,2.9,6.5,6.5,6.6c0.2,0,0.3,0,0.5,0l0,0    c2.2,0,4.3-0.9,6-2.4l1.4,2c-2,2-4.8,3.1-7.6,2.9c-5.6,0-9.6-4.2-9.6-10C512.7,437.7,516.6,433.2,522.2,433.2z M515.8,442.1h12.6    c0.1-3.4-2.5-6.2-5.9-6.4c0,0-0.1,0-0.1,0h-0.2C518,435.7,516,439.2,515.8,442.1L515.8,442.1z"/>
		<path class="st0" d="M535.8,433.7h2.9v3.1c1.4-2.2,3.8-3.5,6.4-3.5v3.1c-0.4,0-0.7-0.2-1.3-0.2c-2.1,0.2-4.1,1.3-5.3,3.1v13.5    h-2.9L535.8,433.7z"/>
		<path class="st0" d="M560.4,450.6c-1.6,1.8-4,2.8-6.4,2.7c-3.3,0-6.7-2.2-6.7-6.4s3.5-6.4,6.7-6.4c2.4-0.1,4.7,0.8,6.4,2.5v-3.5    c0-2.5-2-4-4.9-4c-2.3,0-4.4,1-5.8,2.7l-1.5-2c1.9-2.1,4.8-3.3,7.6-3.1c4,0,7.5,1.8,7.5,6.5V453h-2.9V450.6z M560.4,445.2    c-1.2-1.6-3.2-2.5-5.3-2.4c-2.7,0-4.7,1.8-4.7,4.2s2,4.2,4.7,4.2c2,0.2,4-0.7,5.3-2.4V445.2z"/>
		<path class="st0" d="M568.1,456.6c1.3-0.9,2.2-2.2,2.5-3.6h-0.5c-0.9,0.1-1.8-0.7-1.8-1.6c0-0.1,0-0.1,0-0.2V451    c0-1.2,1-2.2,2.2-2.2c1.3,0,2.5,1.1,2.5,3.1c-0.1,2.4-1.3,4.6-3.3,6L568.1,456.6z"/>
		<path class="st0" d="M587.5,426.4h3.3V453h-3.3V426.4z"/>
		<path class="st0" d="M609.4,440.3c0-3.5-1.6-4.4-4.4-4.4c-2.2,0-4.3,1.1-5.6,2.9v14h-2.9v-19.1h2.9v2.7c1.8-2,4.3-3.1,6.9-3.3    c4,0,6.2,2,6.2,6.2v13.5h-2.9L609.4,440.3L609.4,440.3z"/>
		<path class="st0" d="M626.5,433.2c2.8-0.2,5.4,1.1,7.1,3.3l-2,1.8c-1.1-1.6-2.9-2.6-4.9-2.5c-4,0-6.5,3.1-6.5,7.5s2.5,7.5,6.5,7.5    c2,0,3.8-0.9,4.9-2.5l2,1.8c-1.6,2.2-4.3,3.5-7.1,3.3c-5.6,0-9.7-4.4-9.7-10S620.8,433.2,626.5,433.2z"/>
		<path class="st0" d="M638.7,448.8c1.2,0,2.2,1,2.2,2.2c0,1.2-1,2.2-2.2,2.2c-1.2,0-2.2-1-2.2-2.2c0,0,0,0,0,0    C636.6,449.8,637.5,448.9,638.7,448.8z"/>
		<path class="st0" d="M654.7,439.5c-0.2-7.3,5.5-13.4,12.7-13.7h0.7c4.1-0.1,7.9,1.9,10.2,5.3l-2.7,1.5c-1.7-2.4-4.5-3.9-7.5-3.8    c-5.7,0-10,4.4-10,10.7s4.4,10.7,10,10.7c2.9,0,5.7-1.5,7.5-3.8l2.7,1.5c-2.4,3.3-6.1,5.2-10.2,5.3c-7.3,0.1-13.3-5.6-13.5-12.9    V439.5z"/>
		<path class="st0" d="M681.1,443.2c0-5.6,3.6-10,9.5-10s9.5,4.5,9.5,10c0,5.6-3.6,10-9.5,10C684.7,453.4,681.1,448.8,681.1,443.2z     M696.9,443.2c0-3.8-2.2-7.5-6.4-7.5s-6.4,3.5-6.4,7.5s2.4,7.5,6.4,7.5S696.9,447.2,696.9,443.2z"/>
		<path class="st0" d="M727.5,439.9c0-2.4-1.1-4-3.5-4c-2,0.2-3.9,1.2-5.1,2.9v14H716v-12.9c0-2.4-1.1-4-3.5-4    c-2,0.2-3.9,1.3-5.1,2.9v14h-2.9v-19.3h2.9v2.7c1.5-1.9,3.7-3.1,6.2-3.3c2.4-0.2,4.5,1.3,5.1,3.6c1.5-2.2,3.9-3.5,6.5-3.6    c3.5,0,5.5,2,5.5,5.8v13.8h-2.9L727.5,439.9z"/>
		<path class="st0" d="M736,460.1v-26.4h2.9v2.9c1.6-2.1,4-3.3,6.6-3.3c5.1,0,8.5,3.8,8.5,10s-3.5,10-8.5,10c-2.6,0-5.1-1.3-6.6-3.5    v10.2L736,460.1z M744.6,435.9c-2.3,0-4.4,1.1-5.6,3.1v8.7c1.3,1.9,3.4,3,5.6,3.1c3.8,0,6.2-3.1,6.2-7.5S748.6,435.9,744.6,435.9z    "/>
		<path class="st0" d="M770.5,450.6c-1.6,1.8-4,2.8-6.4,2.7c-3.3,0-6.7-2.2-6.7-6.4s3.5-6.4,6.7-6.4c2.4-0.1,4.7,0.8,6.4,2.5v-3.5    c0-2.5-2-4-4.9-4c-2.3,0-4.4,1-5.8,2.7l-1.3-2c1.9-2.1,4.8-3.3,7.6-3.1c4,0,7.5,1.8,7.5,6.5V453h-2.9L770.5,450.6z M770.5,445.2    c-1.2-1.6-3.2-2.5-5.3-2.4c-2.7,0-4.7,1.8-4.7,4.2s2,4.2,4.7,4.2c2,0.1,4-0.8,5.3-2.4V445.2z"/>
		<path class="st0" d="M791.7,440.3c0-3.5-1.6-4.4-4.4-4.4c-2.2,0-4.3,1.1-5.6,2.9v14h-2.9v-19.1h2.9v2.7c1.8-2,4.3-3.1,6.9-3.3    c4,0,6.2,2,6.2,6.2v13.5h-2.9L791.7,440.3z"/>
		<path class="st0" d="M801.4,457.9c1.3,0.1,2.6-0.7,2.9-2l1.3-2.9l-8-19.3h3.3l6.4,15.7l6.4-15.7h3.3l-9.7,23.1    c-0.8,2.4-3.1,4-5.6,3.8c-0.7,0-1.5-0.2-2.2-0.4l0.5-2.7C800.4,457.9,800.9,458,801.4,457.9z"/>
	</g>
</g>
<rect x="60" y="141" class="st3" width="789" height="345"/>
</svg>