<?xml version="1.0" encoding="UTF-8"?>
<svg version="1.1" xmlns="http://www.w3.org/2000/svg" width="220" height="50">
<path d="M0 0 C2 2 2 2 2.125 5.4375 C2.08375 6.613125 2.0425 7.78875 2 9 C1.70591415 12.02067791 1.70591415 12.02067791 3.5 14.0625 C5.14709356 17.28805822 5.07011613 18.59750568 4.875 22.125 C4.71500114 24.69099013 4.71500114 24.69099013 5 27 C7.3202093 29.23025247 7.3202093 29.23025247 10 30 C9.72265625 31.890625 9.72265625 31.890625 9 34 C2.10412249 37.3874486 -3.3260791 37.82959504 -10.875 36.125 C-14 35 -14 35 -16 33 C-15.8125 31 -15.8125 31 -15 29 C-14.01 28.34 -13.02 27.68 -12 27 C-11.7491897 24.99048004 -11.7491897 24.99048004 -12 22.75 C-12.16127385 18.39560597 -11.30113587 15.77386283 -9 12 C-7.67291667 9.84583333 -7.67291667 9.84583333 -8.625 6.5625 C-9 3 -9 3 -7.9375 1.0625 C-5.17331023 -0.45334601 -3.09771665 -0.32954432 0 0 Z M-5 2 C-5.66 2.66 -6.32 3.32 -7 4 C-7.06754834 6.06599083 -7.06754834 6.06599083 -6 8 C-3.50965614 9.29660434 -3.50965614 9.29660434 -1 10 C1.30671915 7.28450846 1.30671915 7.28450846 0.625 4.8125 C0.41875 4.214375 0.2125 3.61625 0 3 C-2.39719432 2.32041397 -2.39719432 2.32041397 -5 2 Z M-5 11 C-8.51798266 15.28754137 -9.63215712 18.30262439 -9.40625 23.875 C-8.80720897 27.00844538 -7.25204246 28.81833387 -5 31 C-2.42783554 30.6452187 -1.20322713 30.1957002 0.6875 28.375 C2.4584441 25.17043448 2.87180308 22.65361218 3 19 C1.27459233 14.78233681 -0.99767945 13.05524569 -5 11 Z M-12.625 30.5 C-13.07875 30.995 -13.5325 31.49 -14 32 C-7.84224216 34.52297023 -3.54611901 35.44236521 3 34 C5.38740541 33.06213652 5.38740541 33.06213652 7 32 C6.01 31.01 5.02 30.02 4 29 C3.01 29.33 2.02 29.66 1 30 C1 30.66 1 31.32 1 32 C-5.625 32.125 -5.625 32.125 -9 31 C-9 30.34 -9 29.68 -9 29 C-11.12364481 28.77390663 -11.12364481 28.77390663 -12.625 30.5 Z " fill="#FFF" transform="translate(21,7)"/>
<path d="M0 0 C1.32 0 2.64 0 4 0 C5.921875 2.40625 5.921875 2.40625 7.75 5.5 C8.67039063 7.03140625 8.67039063 7.03140625 9.609375 8.59375 C10.06828125 9.3878125 10.5271875 10.181875 11 11 C13.55266817 8.57603779 15.57984679 6.35171311 17.25 3.25 C17.8275 2.1775 18.405 1.105 19 0 C20.32 0 21.64 0 23 0 C23 7.92 23 15.84 23 24 C22.01 24 21.02 24 20 24 C19.67 18.72 19.34 13.44 19 8 C16.03 12.455 16.03 12.455 13 17 C7.81257257 14.40628629 6.86746405 11.9384103 4 7 C3.67 12.61 3.34 18.22 3 24 C2.01 24 1.02 24 0 24 C0 16.08 0 8.16 0 0 Z " fill="#FFF" transform="translate(136,14)"/>
<path d="M0 0 C3 2 3 2 3.51171875 3.9453125 C3.67447917 5.96354167 3.83723958 7.98177083 4 10 C-0.62 10.33 -5.24 10.66 -10 11 C-10 11.66 -10 12.32 -10 13 C-5.28400182 13.92470553 -2.32734391 14.22923777 2 12 C2 12.99 2 13.98 2 15 C-0.40450178 17.40450178 -1.08233942 17.29609139 -4.375 17.3125 C-7.09093839 17.22517079 -8.94024311 17.02240883 -11.5 16.0625 C-13.95476291 12.687201 -14.31756233 9.11387569 -14 5 C-10.34049023 -1.27344533 -6.76061197 -1.32797735 0 0 Z M-8 2 C-9.485 4.475 -9.485 4.475 -11 7 C-7.04 7 -3.08 7 1 7 C0.67 5.68 0.34 4.36 0 3 C-2.86120256 1.56939872 -4.84010585 1.61307419 -8 2 Z " fill="#FFF" transform="translate(129,21)"/>
<path d="M0 0 C2 1.6875 2 1.6875 3 4 C3 5.98 3 7.96 3 10 C-1.62 10 -6.24 10 -11 10 C-9.68 11.32 -8.36 12.64 -7 14 C-4.41666667 13.91666667 -4.41666667 13.91666667 -2 13 C-1.01 12.67 -0.02 12.34 1 12 C1 13.32 1 14.64 1 16 C-2.45904266 17.72952133 -6.21768025 17.47783755 -10 17 C-13.09824425 14.98614124 -13.79896026 13.61652188 -14.9375 10.125 C-15.0154753 6.2262352 -14.13513938 4.23952181 -12 1 C-8.53548675 -1.95125203 -4.13292336 -1.20214543 0 0 Z M-10.4375 3.875 C-12.09873174 5.69467209 -12.09873174 5.69467209 -12 7 C-8.04 7 -4.08 7 0 7 C-0.33 5.68 -0.66 4.36 -1 3 C-6.03778358 1.6645624 -6.03778358 1.6645624 -10.4375 3.875 Z " fill="#FFF" transform="translate(72,21)"/>
<path d="M0 0 C0.99 0 1.98 0 3 0 C3.49371094 1.21558594 3.98742188 2.43117188 4.49609375 3.68359375 C5.14309709 5.2682831 5.7902397 6.85291559 6.4375 8.4375 C6.92573242 9.64116211 6.92573242 9.64116211 7.42382812 10.86914062 C7.73642578 11.63291016 8.04902344 12.39667969 8.37109375 13.18359375 C8.65911865 13.89056396 8.94714355 14.59753418 9.24389648 15.32592773 C9.88053845 16.99832767 9.88053845 16.99832767 11 18 C11.68835938 16.17662109 11.68835938 16.17662109 12.390625 14.31640625 C13.00960117 12.73145211 13.62943762 11.14683375 14.25 9.5625 C14.55035156 8.76005859 14.85070313 7.95761719 15.16015625 7.13085938 C15.46308594 6.36708984 15.76601563 5.60332031 16.078125 4.81640625 C16.35043945 4.10943604 16.62275391 3.40246582 16.90332031 2.67407227 C18 1 18 1 20.12011719 0.26147461 C20.74047852 0.17518799 21.36083984 0.08890137 22 0 C15.84965831 16.8929385 15.84965831 16.8929385 12 24 C11.01 24 10.02 24 9 24 C7.49115787 20.56631406 5.99446599 17.12746451 4.5 13.6875 C4.07074219 12.71103516 3.64148437 11.73457031 3.19921875 10.72851562 C2.79316406 9.79072266 2.38710938 8.85292969 1.96875 7.88671875 C1.40317383 6.59060669 1.40317383 6.59060669 0.82617188 5.26831055 C0 3 0 3 0 0 Z " fill="#FFF" transform="translate(37,14)"/>
<path d="M0 0 C4.63235294 2.26470588 4.63235294 2.26470588 6 5 C6.36423273 9.44363935 6.49284472 11.9714545 4.5625 16 C1.29616408 18.54933535 -0.81383282 18.66788545 -4.875 18.4140625 C-7 18 -7 18 -9.5 16.4375 C-11.50133412 13.18533206 -11.93311096 10.81267501 -12 7 C-9.42490541 1.20603718 -6.27824116 -0.62782412 0 0 Z M-7.3125 4.6875 C-9.14701782 6.87950696 -9.14701782 6.87950696 -9.5625 9.5 C-9.17120819 12.21088498 -9.17120819 12.21088498 -6.8125 14.375 C-4.16228939 16.20604746 -4.16228939 16.20604746 -1.375 16.0625 C1.84500339 14.62197217 2.73647751 13.2702935 4 10 C3.18795587 6.82564566 2.31819425 5.31819425 0 3 C-3.31164248 2.47710908 -4.57804097 2.69208395 -7.3125 4.6875 Z " fill="#FFF" transform="translate(174,20)"/>
<path d="M0 0 C0.99 0 1.98 0 3 0 C3.33 3.63 3.66 7.26 4 11 C4.556875 10.34 5.11375 9.68 5.6875 9 C8 7 8 7 10.75 6.75 C11.4925 6.8325 12.235 6.915 13 7 C11.8553125 8.11375 11.8553125 8.11375 10.6875 9.25 C8.5606298 11.4263323 6.7440044 13.52167796 5 16 C5.8353125 16.309375 5.8353125 16.309375 6.6875 16.625 C9.92501302 18.55000774 11.68231141 21.03850902 14 24 C9.59885603 23.49701212 7.28804981 21.91227269 4 19 C3.67 20.65 3.34 22.3 3 24 C2.01 24 1.02 24 0 24 C0 16.08 0 8.16 0 0 Z " fill="#FFF" transform="translate(202,14)"/>
<path d="M0 0 C0.66 0 1.32 0 2 0 C2.06058594 0.75925781 2.12117188 1.51851562 2.18359375 2.30078125 C2.26738281 3.29464844 2.35117188 4.28851563 2.4375 5.3125 C2.55931641 6.79169922 2.55931641 6.79169922 2.68359375 8.30078125 C2.91812559 11.09375599 2.91812559 11.09375599 4 14 C6.35367713 14.6878236 6.35367713 14.6878236 9 15 C9.99 14.34 10.98 13.68 12 13 C12.58592634 9.88389446 12.58592634 9.88389446 12.6875 6.375 C12.75324219 5.18648437 12.81898437 3.99796875 12.88671875 2.7734375 C12.94279297 1.40058594 12.94279297 1.40058594 13 0 C13.99 0 14.98 0 16 0 C16 5.94 16 11.88 16 18 C3.59916887 18.49112202 3.59916887 18.49112202 1.09375 16.4375 C-0.40400919 13.09963666 -0.2886773 10.39238295 -0.1875 6.75 C-0.16042969 5.48671875 -0.13335937 4.2234375 -0.10546875 2.921875 C-0.07066406 1.95765625 -0.03585938 0.9934375 0 0 Z " fill="#FFF" transform="translate(97,20)"/>
<path d="M0 0 C3.3039229 5.15023276 2.51740655 10.35664061 2.125 16.3125 C1.135 16.3125 0.145 16.3125 -0.875 16.3125 C-1.205 11.6925 -1.535 7.0725 -1.875 2.3125 C-4.185 2.3125 -6.495 2.3125 -8.875 2.3125 C-10.66775866 5.43160856 -11.21790718 7.98932428 -11.5 11.5625 C-11.57476562 12.45453125 -11.64953125 13.3465625 -11.7265625 14.265625 C-11.77554688 14.94109375 -11.82453125 15.6165625 -11.875 16.3125 C-12.535 16.3125 -13.195 16.3125 -13.875 16.3125 C-13.875 10.7025 -13.875 5.0925 -13.875 -0.6875 C-4.39986188 -2.58252762 -4.39986188 -2.58252762 0 0 Z " fill="#FFF" transform="translate(196.875,21.6875)"/>
<path d="M0 0 C3.3039229 5.15023276 2.51740655 10.35664061 2.125 16.3125 C1.135 16.3125 0.145 16.3125 -0.875 16.3125 C-1.205 11.6925 -1.535 7.0725 -1.875 2.3125 C-4.185 2.3125 -6.495 2.3125 -8.875 2.3125 C-10.66775866 5.43160856 -11.21790718 7.98932428 -11.5 11.5625 C-11.57476562 12.45453125 -11.64953125 13.3465625 -11.7265625 14.265625 C-11.77554688 14.94109375 -11.82453125 15.6165625 -11.875 16.3125 C-12.535 16.3125 -13.195 16.3125 -13.875 16.3125 C-13.875 10.7025 -13.875 5.0925 -13.875 -0.6875 C-4.39986188 -2.58252762 -4.39986188 -2.58252762 0 0 Z " fill="#FFF" transform="translate(91.875,21.6875)"/>
<path d="M0 0 C2 1 2 1 2 1 Z " fill="#FFF" transform="translate(19,11)"/>
<path d="M0 0 C2 1 2 1 2 1 Z " fill="#481268" transform="translate(15,11)"/>
</svg>
