<svg xmlns="http://www.w3.org/2000/svg" width="220" height="50">
  <path fill="#FFF" d="M21 7c2 2 2 2 2.125 5.4375L23 16c-.29408585 3.02067791-.29408585 3.02067791 1.5 5.0625 1.64709356 3.22555822 1.57011613 4.53500568 1.375 8.0625-.15999886 2.56599013-.15999886 2.56599013.125 4.875 2.3202093 2.23025247 2.3202093 2.23025247 5 3-.27734375 1.890625-.27734375 1.890625-1 4-6.89587751 3.3874486-12.3260791 3.82959504-19.875 2.125C7 42 7 42 5 40c.1875-2 .1875-2 1-4l3-2c.2508103-2.00951996.2508103-2.00951996 0-4.25-.16127385-4.35439403.69886413-6.97613717 3-10.75 1.32708333-2.15416667 1.32708333-2.15416667.375-5.4375C12 10 12 10 13.0625 8.0625 15.82668977 6.54665399 17.90228335 6.67045568 21 7Zm-5 2-2 2c-.06754834 2.06599083-.06754834 2.06599083 1 4 2.49034386 1.29660434 2.49034386 1.29660434 5 2 2.30671915-2.71549154 2.30671915-2.71549154 1.625-5.1875L21 10c-2.39719432-.67958603-2.39719432-.67958603-5-1Zm0 9c-3.51798266 4.28754137-4.63215712 7.30262439-4.40625 12.875C12.19279103 34.00844538 13.74795754 35.81833387 16 38c2.57216446-.3547813 3.79677287-.8042998 5.6875-2.625C23.4584441 32.17043448 23.87180308 29.65361218 24 26c-1.72540767-4.21766319-3.99767945-5.94475431-8-8ZM8.375 37.5 7 39c6.15775784 2.52297023 10.45388099 3.44236521 17 2 2.38740541-.93786348 2.38740541-.93786348 4-2l-3-3-3 1v2c-6.625.125-6.625.125-10-1v-2c-2.12364481-.22609337-2.12364481-.22609337-3.625 1.5ZM136 14h4c1.921875 2.40625 1.921875 2.40625 3.75 5.5l1.859375 3.09375L147 25c2.55266817-2.42396221 4.57984679-4.64828689 6.25-7.75L155 14h4v24h-3l-1-16-6 9c-5.18742743-2.59371371-6.13253595-5.0615897-9-10l-1 17h-3V14ZM129 21c3 2 3 2 3.51171875 3.9453125L133 31l-14 1v2c4.71599818.92470553 7.67265609 1.22923777 12-1v3c-2.40450178 2.40450178-3.08233942 2.29609139-6.375 2.3125-2.71593839-.08732921-4.56524311-.29009117-7.125-1.25-2.45476291-3.375299-2.81756233-6.94862431-2.5-11.0625 3.65950977-6.27344533 7.23938803-6.32797735 14-5Zm-8 2-3 5h12l-1-4c-2.86120256-1.43060128-4.84010585-1.38692581-8-1ZM72 21c2 1.6875 2 1.6875 3 4v6H61l4 4c2.58333333-.08333333 2.58333333-.08333333 5-1l3-1v4c-3.45904266 1.72952133-7.21768025 1.47783755-11 1-3.09824425-2.01385876-3.79896026-3.38347812-4.9375-6.875-.0779753-3.8987648.80236062-5.88547819 2.9375-9.125 3.46451325-2.95125203 7.86707664-2.20214543 12-1Zm-10.4375 3.875C59.90126826 26.69467209 59.90126826 26.69467209 60 28h12l-1-4c-5.03778358-1.3354376-5.03778358-1.3354376-9.4375.875ZM37 14h3l1.49609375 3.68359375C42.14309709 19.2682831 42.7902397 20.85291559 43.4375 22.4375l.98632812 2.43164062.94726563 2.31445313.87280273 2.14233398C46.88053845 30.99832767 46.88053845 30.99832767 48 32l1.390625-3.68359375c.61897617-1.58495414 1.23881262-3.1695725 1.859375-4.75390625l.91015625-2.43164062.91796875-2.31445313.82519531-2.14233398C55 15 55 15 57.12011719 14.26147461L59 14c-6.15034169 16.8929385-6.15034169 16.8929385-10 24h-3c-1.50884213-3.43368594-3.00553401-6.87253549-4.5-10.3125l-1.30078125-2.95898438L38.96875 21.88671875l-1.14257812-2.6184082C37 17 37 17 37 14ZM174 20c4.63235294 2.26470588 4.63235294 2.26470588 6 5 .36423273 4.44363935.49284472 6.9714545-1.4375 11-3.26633592 2.54933535-5.37633282 2.66788545-9.4375 2.4140625C167 38 167 38 164.5 36.4375c-2.00133412-3.25216794-2.43311096-5.62482499-2.5-9.4375 2.57509459-5.79396282 5.72175884-7.62782412 12-7Zm-7.3125 4.6875c-1.83451782 2.19200696-1.83451782 2.19200696-2.25 4.8125.39129181 2.71088498.39129181 2.71088498 2.75 4.875 2.65021061 1.83104746 2.65021061 1.83104746 5.4375 1.6875 3.22000339-1.44052783 4.11147751-2.7922065 5.375-6.0625-.81204413-3.17435434-1.68180575-4.68180575-4-7-3.31164248-.52289092-4.57804097-.30791605-7.3125 1.6875ZM202 14h3l1 11 1.6875-2C210 21 210 21 212.75 20.75L215 21l-2.3125 2.25c-2.1268702 2.1763323-3.9434956 4.27167796-5.6875 6.75l1.6875.625c3.23751302 1.92500774 4.99481141 4.41350902 7.3125 7.375-4.40114397-.50298788-6.71195019-2.08772731-10-5l-1 5h-3V14ZM97 20h2l.18359375 2.30078125L99.4375 25.3125l.24609375 2.98828125C99.91812559 31.09375599 99.91812559 31.09375599 101 34c2.35367713.6878236 2.35367713.6878236 5 1l3-2c.58592634-3.11610554.58592634-3.11610554.6875-6.625l.19921875-3.6015625L110 20h3v18c-12.40083113.49112202-12.40083113.49112202-14.90625-1.5625-1.49775919-3.33786334-1.3824273-6.04511705-1.28125-9.6875l.08203125-3.828125L97 20ZM196.875 21.6875C200.1789229 26.83773276 199.39240655 32.04414061 199 38h-3l-1-14h-7c-1.79275866 3.11910856-2.34290718 5.67682428-2.625 9.25l-.2265625 2.703125L185 38h-2V21c9.47513812-1.89502762 9.47513812-1.89502762 13.875.6875ZM91.875 21.6875C95.1789229 26.83773276 94.39240655 32.04414061 94 38h-3l-1-14h-7c-1.79275866 3.11910856-2.34290718 5.67682428-2.625 9.25l-.2265625 2.703125L80 38h-2V21c9.47513812-1.89502762 9.47513812-1.89502762 13.875.6875ZM19 11l2 1Z"/>
  <path fill="#481268" d="m15 11 2 1Z"/>
</svg>